<?xml version="1.0" encoding="ISO8859-1"?>
<svg xmlns="http://www.w3.org/2000/svg" xmlns:xlink="http://www.w3.org/1999/xlink" width="288px" height="252px" viewBox="0 0 288 252" version="1.1" id="Fig:dens">
  <metadata xmlns:gridsvg="http://www.stat.auckland.ac.nz/~paul/R/gridSVG/">
    <gridsvg:generator name="gridSVG" version="1.7-1" time="2020-04-09 10:55:45"/>
    <gridsvg:argument name="name" value="./results/QCDir.Raw/dens.svg"/>
    <gridsvg:argument name="exportCoords" value="none"/>
    <gridsvg:argument name="exportMappings" value="none"/>
    <gridsvg:argument name="exportJS" value="none"/>
    <gridsvg:argument name="res" value="72"/>
    <gridsvg:argument name="prefix" value="Fig:dens"/>
    <gridsvg:argument name="addClasses" value="FALSE"/>
    <gridsvg:argument name="indent" value="TRUE"/>
    <gridsvg:argument name="htmlWrapper" value="FALSE"/>
    <gridsvg:argument name="usePaths" value="none"/>
    <gridsvg:argument name="uniqueNames" value="TRUE"/>
    <gridsvg:separator name="id.sep" value="."/>
    <gridsvg:separator name="gPath.sep" value="::"/>
    <gridsvg:separator name="vpPath.sep" value="::"/>
  </metadata>
  <g transform="translate(0, 252) scale(1, -1)">
    <g id="Fig:densgridSVG" fill="none" stroke="rgb(0,0,0)" stroke-dasharray="none" stroke-width="0.75" font-size="12" font-family="Helvetica, Arial, FreeSans, Liberation Sans, Nimbus Sans L, sans-serif" opacity="1" stroke-linecap="round" stroke-linejoin="round" stroke-miterlimit="10" stroke-opacity="1" fill-opacity="0" font-weight="normal" font-style="normal">
      <g id="Fig:densplot_01.background.1">
        <rect id="Fig:densplot_01.background.1.1" x="0" y="0" width="288" height="252" transform="" fill="none" stroke="none" stroke-opacity="0" fill-opacity="0"/>
      </g>
      <g id="Fig:densplot_01.toplevel.vp.1" font-size="12">
        <g id="Fig:densplot_01.ylab.vp.1">
          <g id="Fig:densplot_01.ylab.1">
            <g id="Fig:densplot_01.ylab.1.1" transform="translate(10.31, 138.09)" stroke-width="0.1">
              <g id="Fig:densplot_01.ylab.1.1.scale" transform="scale(1, -1)">
                <text x="0" y="0" id="Fig:densplot_01.ylab.1.1.text" transform="rotate(-90)" text-anchor="middle" opacity="1" stroke="rgb(0,0,0)" fill="rgb(0,0,0)" stroke-opacity="1" fill-opacity="1" font-size="12" font-weight="normal" font-style="normal">
                  <tspan id="Fig:densplot_01.ylab.1.1.tspan.1" dy="4.31" x="0">Density</tspan>
                </text>
              </g>
            </g>
          </g>
        </g>
        <g id="Fig:densplot_01.figure.vp.1"/>
        <defs>
          <clipPath id="Fig:densplot_01.panel.1.1.vp.1.clipPath">
            <rect x="44.8" y="42.19" width="231.2" height="191.81" fill="none" stroke="none"/>
          </clipPath>
        </defs>
        <g id="Fig:densplot_01.panel.1.1.vp.1" clip-path="url(#Fig:densplot_01.panel.1.1.vp.1.clipPath)"/>
        <g id="Fig:densplot_01.strip.1.1.off.vp.1"/>
        <g id="Fig:densplot_01.strip.left.1.1.off.vp.1">
          <g id="Fig:densplot_01.ticks.left.panel.1.1.1">
            <polyline id="Fig:densplot_01.ticks.left.panel.1.1.1.1" points="44.8,53.97 39.13,53.97" stroke="rgb(0,0,0)" opacity="1" stroke-dasharray="none" stroke-width="0.75" stroke-opacity="1" fill="none"/>
            <polyline id="Fig:densplot_01.ticks.left.panel.1.1.1.2" points="44.8,91.06 39.13,91.06" stroke="rgb(0,0,0)" opacity="1" stroke-dasharray="none" stroke-width="0.75" stroke-opacity="1" fill="none"/>
            <polyline id="Fig:densplot_01.ticks.left.panel.1.1.1.3" points="44.8,128.15 39.13,128.15" stroke="rgb(0,0,0)" opacity="1" stroke-dasharray="none" stroke-width="0.75" stroke-opacity="1" fill="none"/>
            <polyline id="Fig:densplot_01.ticks.left.panel.1.1.1.4" points="44.8,165.25 39.13,165.25" stroke="rgb(0,0,0)" opacity="1" stroke-dasharray="none" stroke-width="0.75" stroke-opacity="1" fill="none"/>
            <polyline id="Fig:densplot_01.ticks.left.panel.1.1.1.5" points="44.8,202.34 39.13,202.34" stroke="rgb(0,0,0)" opacity="1" stroke-dasharray="none" stroke-width="0.75" stroke-opacity="1" fill="none"/>
          </g>
          <g id="Fig:densplot_01.ticklabels.left.panel.1.1.1">
            <g id="Fig:densplot_01.ticklabels.left.panel.1.1.1.1" transform="translate(33.47, 53.97)" stroke-width="0.1">
              <g id="Fig:densplot_01.ticklabels.left.panel.1.1.1.1.scale" transform="scale(1, -1)">
                <text x="0" y="0" id="Fig:densplot_01.ticklabels.left.panel.1.1.1.1.text" transform="rotate(-90)" text-anchor="middle" stroke="rgb(0,0,0)" opacity="1" fill="rgb(0,0,0)" stroke-opacity="1" fill-opacity="1" font-size="9.6" font-weight="normal" font-style="normal">
                  <tspan id="Fig:densplot_01.ticklabels.left.panel.1.1.1.1.tspan.1" dy="0" x="0">0.00</tspan>
                </text>
              </g>
            </g>
            <g id="Fig:densplot_01.ticklabels.left.panel.1.1.1.2" transform="translate(33.47, 91.06)" stroke-width="0.1">
              <g id="Fig:densplot_01.ticklabels.left.panel.1.1.1.2.scale" transform="scale(1, -1)">
                <text x="0" y="0" id="Fig:densplot_01.ticklabels.left.panel.1.1.1.2.text" transform="rotate(-90)" text-anchor="middle" stroke="rgb(0,0,0)" opacity="1" fill="rgb(0,0,0)" stroke-opacity="1" fill-opacity="1" font-size="9.6" font-weight="normal" font-style="normal">
                  <tspan id="Fig:densplot_01.ticklabels.left.panel.1.1.1.2.tspan.1" dy="0" x="0">0.01</tspan>
                </text>
              </g>
            </g>
            <g id="Fig:densplot_01.ticklabels.left.panel.1.1.1.3" transform="translate(33.47, 128.15)" stroke-width="0.1">
              <g id="Fig:densplot_01.ticklabels.left.panel.1.1.1.3.scale" transform="scale(1, -1)">
                <text x="0" y="0" id="Fig:densplot_01.ticklabels.left.panel.1.1.1.3.text" transform="rotate(-90)" text-anchor="middle" stroke="rgb(0,0,0)" opacity="1" fill="rgb(0,0,0)" stroke-opacity="1" fill-opacity="1" font-size="9.6" font-weight="normal" font-style="normal">
                  <tspan id="Fig:densplot_01.ticklabels.left.panel.1.1.1.3.tspan.1" dy="0" x="0">0.02</tspan>
                </text>
              </g>
            </g>
            <g id="Fig:densplot_01.ticklabels.left.panel.1.1.1.4" transform="translate(33.47, 165.25)" stroke-width="0.1">
              <g id="Fig:densplot_01.ticklabels.left.panel.1.1.1.4.scale" transform="scale(1, -1)">
                <text x="0" y="0" id="Fig:densplot_01.ticklabels.left.panel.1.1.1.4.text" transform="rotate(-90)" text-anchor="middle" stroke="rgb(0,0,0)" opacity="1" fill="rgb(0,0,0)" stroke-opacity="1" fill-opacity="1" font-size="9.6" font-weight="normal" font-style="normal">
                  <tspan id="Fig:densplot_01.ticklabels.left.panel.1.1.1.4.tspan.1" dy="0" x="0">0.03</tspan>
                </text>
              </g>
            </g>
            <g id="Fig:densplot_01.ticklabels.left.panel.1.1.1.5" transform="translate(33.47, 202.34)" stroke-width="0.1">
              <g id="Fig:densplot_01.ticklabels.left.panel.1.1.1.5.scale" transform="scale(1, -1)">
                <text x="0" y="0" id="Fig:densplot_01.ticklabels.left.panel.1.1.1.5.text" transform="rotate(-90)" text-anchor="middle" stroke="rgb(0,0,0)" opacity="1" fill="rgb(0,0,0)" stroke-opacity="1" fill-opacity="1" font-size="9.6" font-weight="normal" font-style="normal">
                  <tspan id="Fig:densplot_01.ticklabels.left.panel.1.1.1.5.tspan.1" dy="0" x="0">0.04</tspan>
                </text>
              </g>
            </g>
          </g>
        </g>
        <g id="Fig:densplot_01.panel.1.1.off.vp.1">
          <g id="Fig:densplot_01.ticks.bottom.panel.1.1.1">
            <polyline id="Fig:densplot_01.ticks.bottom.panel.1.1.1.1" points="56.13,42.19 56.13,36.52" stroke="rgb(0,0,0)" opacity="1" stroke-dasharray="none" stroke-width="0.75" stroke-opacity="1" fill="none"/>
            <polyline id="Fig:densplot_01.ticks.bottom.panel.1.1.1.2" points="120.43,42.19 120.43,36.52" stroke="rgb(0,0,0)" opacity="1" stroke-dasharray="none" stroke-width="0.75" stroke-opacity="1" fill="none"/>
            <polyline id="Fig:densplot_01.ticks.bottom.panel.1.1.1.3" points="184.74,42.19 184.74,36.52" stroke="rgb(0,0,0)" opacity="1" stroke-dasharray="none" stroke-width="0.75" stroke-opacity="1" fill="none"/>
            <polyline id="Fig:densplot_01.ticks.bottom.panel.1.1.1.4" points="249.04,42.19 249.04,36.52" stroke="rgb(0,0,0)" opacity="1" stroke-dasharray="none" stroke-width="0.75" stroke-opacity="1" fill="none"/>
          </g>
          <g id="Fig:densplot_01.ticklabels.bottom.panel.1.1.1">
            <g id="Fig:densplot_01.ticklabels.bottom.panel.1.1.1.1" transform="translate(56.13, 30.85)" stroke-width="0.1">
              <g id="Fig:densplot_01.ticklabels.bottom.panel.1.1.1.1.scale" transform="scale(1, -1)">
                <text x="0" y="0" id="Fig:densplot_01.ticklabels.bottom.panel.1.1.1.1.text" text-anchor="middle" stroke="rgb(0,0,0)" opacity="1" fill="rgb(0,0,0)" stroke-opacity="1" fill-opacity="1" font-size="9.6" font-weight="normal" font-style="normal">
                  <tspan id="Fig:densplot_01.ticklabels.bottom.panel.1.1.1.1.tspan.1" dy="7.18" x="0">0</tspan>
                </text>
              </g>
            </g>
            <g id="Fig:densplot_01.ticklabels.bottom.panel.1.1.1.2" transform="translate(120.43, 30.85)" stroke-width="0.1">
              <g id="Fig:densplot_01.ticklabels.bottom.panel.1.1.1.2.scale" transform="scale(1, -1)">
                <text x="0" y="0" id="Fig:densplot_01.ticklabels.bottom.panel.1.1.1.2.text" text-anchor="middle" stroke="rgb(0,0,0)" opacity="1" fill="rgb(0,0,0)" stroke-opacity="1" fill-opacity="1" font-size="9.6" font-weight="normal" font-style="normal">
                  <tspan id="Fig:densplot_01.ticklabels.bottom.panel.1.1.1.2.tspan.1" dy="7.18" x="0">200</tspan>
                </text>
              </g>
            </g>
            <g id="Fig:densplot_01.ticklabels.bottom.panel.1.1.1.3" transform="translate(184.74, 30.85)" stroke-width="0.1">
              <g id="Fig:densplot_01.ticklabels.bottom.panel.1.1.1.3.scale" transform="scale(1, -1)">
                <text x="0" y="0" id="Fig:densplot_01.ticklabels.bottom.panel.1.1.1.3.text" text-anchor="middle" stroke="rgb(0,0,0)" opacity="1" fill="rgb(0,0,0)" stroke-opacity="1" fill-opacity="1" font-size="9.6" font-weight="normal" font-style="normal">
                  <tspan id="Fig:densplot_01.ticklabels.bottom.panel.1.1.1.3.tspan.1" dy="7.18" x="0">400</tspan>
                </text>
              </g>
            </g>
            <g id="Fig:densplot_01.ticklabels.bottom.panel.1.1.1.4" transform="translate(249.04, 30.85)" stroke-width="0.1">
              <g id="Fig:densplot_01.ticklabels.bottom.panel.1.1.1.4.scale" transform="scale(1, -1)">
                <text x="0" y="0" id="Fig:densplot_01.ticklabels.bottom.panel.1.1.1.4.text" text-anchor="middle" stroke="rgb(0,0,0)" opacity="1" fill="rgb(0,0,0)" stroke-opacity="1" fill-opacity="1" font-size="9.6" font-weight="normal" font-style="normal">
                  <tspan id="Fig:densplot_01.ticklabels.bottom.panel.1.1.1.4.tspan.1" dy="7.18" x="0">600</tspan>
                </text>
              </g>
            </g>
          </g>
        </g>
        <defs>
          <clipPath id="Fig:densplot_01.panel.1.1.vp.2.clipPath">
            <rect x="44.8" y="42.19" width="231.2" height="191.81" fill="none" stroke="none"/>
          </clipPath>
        </defs>
        <g id="Fig:densplot_01.panel.1.1.vp.2" clip-path="url(#Fig:densplot_01.panel.1.1.vp.2.clipPath)">
          <g id="Fig:densplot_01.xyplot.lines.group.1.panel.1.1.1">
            <polyline id="Fig:densplot_01.xyplot.lines.group.1.panel.1.1.1.1" points="60.9,53.97 61.29,53.97 61.68,53.97 62.07,53.97 62.47,53.98 62.86,54.01 63.25,54.07 63.64,54.17 64.03,54.36 64.42,54.63 64.81,55.01 65.2,55.45 65.59,55.93 65.98,56.41 66.37,56.88 66.76,57.43 67.15,58.22 67.54,59.56 67.93,61.82 68.32,65.41 68.71,70.66 69.1,77.76 69.49,86.59 69.88,96.74 70.27,107.48 70.67,117.92 71.06,127.07 71.45,134.28 71.84,139.16 72.23,141.67 72.62,141.99 73.01,140.5 73.4,137.65 73.79,133.89 74.18,129.63 74.57,125.21 74.96,120.88 75.35,116.77 75.74,112.97 76.13,109.47 76.52,106.28 76.91,103.38 77.3,100.73 77.69,98.32 78.08,96.12 78.48,94.11 78.87,92.24 79.26,90.51 79.65,88.9 80.04,87.42 80.43,86.05 80.82,84.79 81.21,83.62 81.6,82.51 81.99,81.44 82.38,80.36 82.77,79.28 83.16,78.2 83.55,77.15 83.94,76.17 84.33,75.27 84.72,74.46 85.11,73.74 85.5,73.09 85.89,72.48 86.28,71.9 86.68,71.35 87.07,70.82 87.46,70.33 87.85,69.86 88.24,69.43 88.63,69 89.02,68.6 89.41,68.21 89.8,67.85 90.19,67.5 90.58,67.17 90.97,66.83 91.36,66.49 91.75,66.14 92.14,65.81 92.53,65.49 92.92,65.2 93.31,64.92 93.7,64.67 94.09,64.44 94.49,64.22 94.88,64.02 95.27,63.84 95.66,63.65 96.05,63.48 96.44,63.3 96.83,63.11 97.22,62.92 97.61,62.71 98,62.51 98.39,62.32 98.78,62.15 99.17,61.99 99.56,61.85 99.95,61.71 100.34,61.57 100.73,61.41 101.12,61.25 101.51,61.09 101.9,60.93 102.3,60.77 102.69,60.62 103.08,60.47 103.47,60.34 103.86,60.21 104.25,60.1 104.64,59.98 105.03,59.87 105.42,59.75 105.81,59.63 106.2,59.5 106.59,59.38 106.98,59.27 107.37,59.19 107.76,59.14 108.15,59.1 108.54,59.06 108.93,59.01 109.32,58.94 109.71,58.85 110.1,58.76 110.5,58.67 110.89,58.58 111.28,58.49 111.67,58.39 112.06,58.28 112.45,58.15 112.84,58.03 113.23,57.92 113.62,57.83 114.01,57.75 114.4,57.69 114.79,57.64 115.18,57.6 115.57,57.56 115.96,57.53 116.35,57.48 116.74,57.41 117.13,57.33 117.52,57.25 117.91,57.18 118.31,57.12 118.7,57.08 119.09,57.05 119.48,57.02 119.87,56.98 120.26,56.93 120.65,56.89 121.04,56.86 121.43,56.83 121.82,56.82 122.21,56.8 122.6,56.78 122.99,56.73 123.38,56.68 123.77,56.61 124.16,56.54 124.55,56.49 124.94,56.44 125.33,56.42 125.72,56.4 126.11,56.39 126.51,56.38 126.9,56.37 127.29,56.35 127.68,56.32 128.07,56.27 128.46,56.22 128.85,56.16 129.24,56.1 129.63,56.06 130.02,56.02 130.41,55.99 130.8,55.97 131.19,55.94 131.58,55.92 131.97,55.9 132.36,55.89 132.75,55.87 133.14,55.85 133.53,55.82 133.92,55.8 134.32,55.78 134.71,55.76 135.1,55.75 135.49,55.74 135.88,55.72 136.27,55.71 136.66,55.69 137.05,55.66 137.44,55.64 137.83,55.61 138.22,55.59 138.61,55.56 139,55.54 139.39,55.5 139.78,55.47 140.17,55.42 140.56,55.38 140.95,55.35 141.34,55.33 141.73,55.32 142.12,55.32 142.52,55.32 142.91,55.32 143.3,55.32 143.69,55.31 144.08,55.3 144.47,55.28 144.86,55.26 145.25,55.25 145.64,55.24 146.03,55.23 146.42,55.22 146.81,55.21 147.2,55.2 147.59,55.18 147.98,55.16 148.37,55.14 148.76,55.12 149.15,55.11 149.54,55.09 149.93,55.07 150.33,55.05 150.72,55.02 151.11,55.01 151.5,54.99 151.89,54.98 152.28,54.98 152.67,54.98 153.06,54.99 153.45,54.99 153.84,55 154.23,55 154.62,54.99 155.01,54.98 155.4,54.96 155.79,54.94 156.18,54.92 156.57,54.91 156.96,54.9 157.35,54.91 157.74,54.93 158.14,54.94 158.53,54.95 158.92,54.95 159.31,54.94 159.7,54.92 160.09,54.89 160.48,54.87 160.87,54.85 161.26,54.84 161.65,54.83 162.04,54.82 162.43,54.82 162.82,54.81 163.21,54.81 163.6,54.8 163.99,54.78 164.38,54.76 164.77,54.75 165.16,54.73 165.55,54.72 165.94,54.71 166.34,54.71 166.73,54.7 167.12,54.7 167.51,54.69 167.9,54.69 168.29,54.69 168.68,54.69 169.07,54.68 169.46,54.67 169.85,54.66 170.24,54.64 170.63,54.62 171.02,54.61 171.41,54.6 171.8,54.61 172.19,54.62 172.58,54.63 172.97,54.63 173.36,54.63 173.75,54.63 174.15,54.62 174.54,54.61 174.93,54.6 175.32,54.59 175.71,54.58 176.1,54.57 176.49,54.56 176.88,54.55 177.27,54.54 177.66,54.54 178.05,54.54 178.44,54.54 178.83,54.55 179.22,54.56 179.61,54.56 180,54.57 180.39,54.57 180.78,54.57 181.17,54.56 181.56,54.55 181.95,54.54 182.35,54.53 182.74,54.52 183.13,54.51 183.52,54.5 183.91,54.48 184.3,54.47 184.69,54.46 185.08,54.45 185.47,54.44 185.86,54.43 186.25,54.43 186.64,54.43 187.03,54.43 187.42,54.43 187.81,54.43 188.2,54.43 188.59,54.42 188.98,54.42 189.37,54.41 189.76,54.41 190.16,54.42 190.55,54.43 190.94,54.44 191.33,54.44 191.72,54.44 192.11,54.43 192.5,54.42 192.89,54.4 193.28,54.39 193.67,54.39 194.06,54.39 194.45,54.39 194.84,54.39 195.23,54.39 195.62,54.4 196.01,54.4 196.4,54.4 196.79,54.4 197.18,54.39 197.57,54.39 197.97,54.38 198.36,54.37 198.75,54.36 199.14,54.35 199.53,54.34 199.92,54.33 200.31,54.33 200.7,54.34 201.09,54.34 201.48,54.35 201.87,54.35 202.26,54.34 202.65,54.34 203.04,54.34 203.43,54.34 203.82,54.34 204.21,54.35 204.6,54.36 204.99,54.36 205.38,54.36 205.77,54.36 206.17,54.35 206.56,54.33 206.95,54.32 207.34,54.3 207.73,54.29 208.12,54.28 208.51,54.28 208.9,54.28 209.29,54.29 209.68,54.29 210.07,54.29 210.46,54.29 210.85,54.29 211.24,54.29 211.63,54.29 212.02,54.28 212.41,54.28 212.8,54.27 213.19,54.27 213.58,54.26 213.98,54.25 214.37,54.25 214.76,54.24 215.15,54.24 215.54,54.23 215.93,54.23 216.32,54.22 216.71,54.22 217.1,54.21 217.49,54.21 217.88,54.21 218.27,54.21 218.66,54.22 219.05,54.22 219.44,54.22 219.83,54.23 220.22,54.23 220.61,54.23 221,54.23 221.39,54.22 221.78,54.21 222.18,54.21 222.57,54.21 222.96,54.22 223.35,54.22 223.74,54.22 224.13,54.22 224.52,54.21 224.91,54.21 225.3,54.21 225.69,54.21 226.08,54.21 226.47,54.21 226.86,54.21 227.25,54.21 227.64,54.2 228.03,54.19 228.42,54.19 228.81,54.19 229.2,54.19 229.59,54.19 229.99,54.19 230.38,54.2 230.77,54.2 231.16,54.2 231.55,54.2 231.94,54.2 232.33,54.21 232.72,54.21 233.11,54.21 233.5,54.22 233.89,54.22 234.28,54.22 234.67,54.23 235.06,54.24 235.45,54.24 235.84,54.24 236.23,54.24 236.62,54.22 237.01,54.21 237.4,54.19 237.79,54.18 238.19,54.17 238.58,54.17 238.97,54.16 239.36,54.15 239.75,54.15 240.14,54.15 240.53,54.16 240.92,54.17 241.31,54.18 241.7,54.18 242.09,54.19 242.48,54.18 242.87,54.18 243.26,54.17 243.65,54.17 244.04,54.17 244.43,54.17 244.82,54.17 245.21,54.17 245.6,54.18 246,54.18 246.39,54.18 246.78,54.18 247.17,54.17 247.56,54.17 247.95,54.17 248.34,54.17 248.73,54.17 249.12,54.16 249.51,54.16 249.9,54.15 250.29,54.15 250.68,54.15 251.07,54.15 251.46,54.15 251.85,54.15 252.24,54.15 252.63,54.15 253.02,54.15 253.41,54.15 253.81,54.14 254.2,54.14 254.59,54.13 254.98,54.13 255.37,54.12 255.76,54.11 256.15,54.1 256.54,54.08 256.93,54.07 257.32,54.05 257.71,54.03 258.1,54.01 258.49,53.99 258.88,53.98 259.27,53.97 259.66,53.97 260.05,53.97 260.44,53.97" stroke-dasharray="none" stroke="rgb(31,120,180)" stroke-width="0.75" opacity="1" stroke-opacity="1" fill="none"/>
          </g>
          <g id="Fig:densplot_01.xyplot.lines.group.2.panel.1.1.1">
            <polyline id="Fig:densplot_01.xyplot.lines.group.2.panel.1.1.1.1" points="61.75,53.97 62.14,53.97 62.53,53.97 62.92,53.97 63.31,53.98 63.7,53.99 64.09,54.01 64.48,54.04 64.87,54.1 65.27,54.19 65.66,54.32 66.05,54.49 66.44,54.71 66.83,54.98 67.22,55.27 67.61,55.58 68,55.9 68.39,56.25 68.79,56.65 69.18,57.16 69.57,57.86 69.96,58.87 70.35,60.29 70.74,62.24 71.13,64.8 71.52,68.02 71.91,71.88 72.3,76.31 72.7,81.18 73.09,86.28 73.48,91.39 73.87,96.26 74.26,100.69 74.65,104.5 75.04,107.58 75.43,109.88 75.82,111.42 76.22,112.25 76.61,112.45 77,112.13 77.39,111.39 77.78,110.31 78.17,108.99 78.56,107.48 78.95,105.85 79.34,104.16 79.74,102.45 80.13,100.75 80.52,99.08 80.91,97.47 81.3,95.92 81.69,94.42 82.08,92.98 82.47,91.6 82.86,90.28 83.26,89.03 83.65,87.84 84.04,86.71 84.43,85.63 84.82,84.59 85.21,83.61 85.6,82.66 85.99,81.74 86.38,80.86 86.78,80 87.17,79.17 87.56,78.36 87.95,77.59 88.34,76.84 88.73,76.12 89.12,75.44 89.51,74.79 89.9,74.17 90.3,73.59 90.69,73.04 91.08,72.52 91.47,72.04 91.86,71.57 92.25,71.14 92.64,70.73 93.03,70.35 93.42,69.99 93.82,69.66 94.21,69.36 94.6,69.08 94.99,68.8 95.38,68.53 95.77,68.25 96.16,67.96 96.55,67.66 96.94,67.36 97.33,67.05 97.73,66.74 98.12,66.43 98.51,66.14 98.9,65.86 99.29,65.59 99.68,65.35 100.07,65.13 100.46,64.92 100.85,64.72 101.25,64.52 101.64,64.33 102.03,64.14 102.42,63.95 102.81,63.76 103.2,63.58 103.59,63.39 103.98,63.21 104.37,63.03 104.77,62.85 105.16,62.69 105.55,62.54 105.94,62.4 106.33,62.27 106.72,62.14 107.11,62.01 107.5,61.87 107.89,61.73 108.29,61.58 108.68,61.44 109.07,61.29 109.46,61.16 109.85,61.05 110.24,60.95 110.63,60.86 111.02,60.77 111.41,60.69 111.81,60.61 112.2,60.53 112.59,60.44 112.98,60.36 113.37,60.27 113.76,60.18 114.15,60.1 114.54,60 114.93,59.91 115.33,59.81 115.72,59.71 116.11,59.6 116.5,59.49 116.89,59.39 117.28,59.29 117.67,59.19 118.06,59.1 118.45,59.02 118.85,58.94 119.24,58.87 119.63,58.81 120.02,58.75 120.41,58.69 120.8,58.63 121.19,58.57 121.58,58.5 121.97,58.44 122.36,58.37 122.76,58.3 123.15,58.22 123.54,58.15 123.93,58.07 124.32,57.99 124.71,57.92 125.1,57.85 125.49,57.78 125.88,57.72 126.28,57.66 126.67,57.6 127.06,57.54 127.45,57.47 127.84,57.41 128.23,57.35 128.62,57.29 129.01,57.25 129.4,57.2 129.8,57.16 130.19,57.12 130.58,57.09 130.97,57.05 131.36,57 131.75,56.96 132.14,56.92 132.53,56.88 132.92,56.84 133.32,56.81 133.71,56.78 134.1,56.76 134.49,56.73 134.88,56.71 135.27,56.68 135.66,56.65 136.05,56.61 136.44,56.58 136.84,56.55 137.23,56.52 137.62,56.49 138.01,56.46 138.4,56.44 138.79,56.42 139.18,56.39 139.57,56.37 139.96,56.35 140.36,56.33 140.75,56.31 141.14,56.29 141.53,56.27 141.92,56.24 142.31,56.21 142.7,56.17 143.09,56.14 143.48,56.11 143.88,56.08 144.27,56.05 144.66,56.02 145.05,55.99 145.44,55.97 145.83,55.95 146.22,55.93 146.61,55.92 147,55.9 147.4,55.89 147.79,55.87 148.18,55.86 148.57,55.84 148.96,55.83 149.35,55.81 149.74,55.79 150.13,55.77 150.52,55.74 150.91,55.72 151.31,55.69 151.7,55.67 152.09,55.65 152.48,55.63 152.87,55.61 153.26,55.6 153.65,55.6 154.04,55.59 154.43,55.59 154.83,55.59 155.22,55.58 155.61,55.58 156,55.57 156.39,55.55 156.78,55.53 157.17,55.51 157.56,55.49 157.95,55.47 158.35,55.46 158.74,55.45 159.13,55.44 159.52,55.44 159.91,55.44 160.3,55.44 160.69,55.43 161.08,55.42 161.47,55.41 161.87,55.39 162.26,55.37 162.65,55.36 163.04,55.34 163.43,55.33 163.82,55.32 164.21,55.31 164.6,55.3 164.99,55.28 165.39,55.27 165.78,55.25 166.17,55.23 166.56,55.22 166.95,55.2 167.34,55.18 167.73,55.17 168.12,55.15 168.51,55.12 168.91,55.1 169.3,55.08 169.69,55.07 170.08,55.05 170.47,55.04 170.86,55.03 171.25,55.02 171.64,55.01 172.03,55 172.43,55 172.82,55 173.21,55 173.6,55 173.99,55 174.38,55 174.77,54.99 175.16,54.99 175.55,54.98 175.94,54.97 176.34,54.95 176.73,54.93 177.12,54.91 177.51,54.89 177.9,54.87 178.29,54.86 178.68,54.84 179.07,54.83 179.46,54.83 179.86,54.82 180.25,54.82 180.64,54.82 181.03,54.82 181.42,54.81 181.81,54.81 182.2,54.81 182.59,54.8 182.98,54.8 183.38,54.79 183.77,54.77 184.16,54.76 184.55,54.75 184.94,54.73 185.33,54.72 185.72,54.71 186.11,54.7 186.5,54.7 186.9,54.71 187.29,54.71 187.68,54.72 188.07,54.73 188.46,54.74 188.85,54.75 189.24,54.76 189.63,54.76 190.02,54.75 190.42,54.74 190.81,54.72 191.2,54.7 191.59,54.69 191.98,54.67 192.37,54.66 192.76,54.66 193.15,54.65 193.54,54.65 193.94,54.65 194.33,54.65 194.72,54.65 195.11,54.64 195.5,54.63 195.89,54.62 196.28,54.6 196.67,54.59 197.06,54.57 197.46,54.56 197.85,54.56 198.24,54.56 198.63,54.56 199.02,54.57 199.41,54.57 199.8,54.58 200.19,54.58 200.58,54.58 200.97,54.58 201.37,54.57 201.76,54.56 202.15,54.56 202.54,54.55 202.93,54.55 203.32,54.54 203.71,54.54 204.1,54.53 204.49,54.53 204.89,54.53 205.28,54.53 205.67,54.52 206.06,54.52 206.45,54.52 206.84,54.51 207.23,54.51 207.62,54.51 208.01,54.51 208.41,54.51 208.8,54.51 209.19,54.51 209.58,54.51 209.97,54.51 210.36,54.5 210.75,54.49 211.14,54.49 211.53,54.48 211.93,54.48 212.32,54.48 212.71,54.49 213.1,54.49 213.49,54.49 213.88,54.49 214.27,54.49 214.66,54.49 215.05,54.49 215.45,54.48 215.84,54.48 216.23,54.48 216.62,54.48 217.01,54.47 217.4,54.47 217.79,54.47 218.18,54.46 218.57,54.46 218.97,54.46 219.36,54.46 219.75,54.46 220.14,54.45 220.53,54.45 220.92,54.45 221.31,54.44 221.7,54.44 222.09,54.43 222.49,54.42 222.88,54.42 223.27,54.42 223.66,54.42 224.05,54.42 224.44,54.42 224.83,54.43 225.22,54.43 225.61,54.43 226.01,54.42 226.4,54.42 226.79,54.41 227.18,54.4 227.57,54.4 227.96,54.39 228.35,54.39 228.74,54.38 229.13,54.38 229.52,54.38 229.92,54.37 230.31,54.37 230.7,54.37 231.09,54.36 231.48,54.36 231.87,54.36 232.26,54.36 232.65,54.36 233.04,54.36 233.44,54.36 233.83,54.36 234.22,54.36 234.61,54.36 235,54.36 235.39,54.36 235.78,54.35 236.17,54.35 236.56,54.34 236.96,54.34 237.35,54.33 237.74,54.33 238.13,54.33 238.52,54.33 238.91,54.33 239.3,54.34 239.69,54.34 240.08,54.33 240.48,54.33 240.87,54.32 241.26,54.32 241.65,54.31 242.04,54.3 242.43,54.29 242.82,54.29 243.21,54.29 243.6,54.29 244,54.29 244.39,54.29 244.78,54.29 245.17,54.29 245.56,54.28 245.95,54.27 246.34,54.27 246.73,54.27 247.12,54.27 247.52,54.27 247.91,54.27 248.3,54.28 248.69,54.28 249.08,54.28 249.47,54.28 249.86,54.28 250.25,54.29 250.64,54.29 251.04,54.29 251.43,54.29 251.82,54.3 252.21,54.3 252.6,54.29 252.99,54.29 253.38,54.28 253.77,54.27 254.16,54.26 254.55,54.25 254.95,54.24 255.34,54.23 255.73,54.21 256.12,54.19 256.51,54.17 256.9,54.14 257.29,54.11 257.68,54.08 258.07,54.05 258.47,54.03 258.86,54.01 259.25,53.99 259.64,53.98 260.03,53.97 260.42,53.97 260.81,53.97 261.2,53.97 261.59,53.97" stroke-dasharray="none" stroke="rgb(31,120,180)" stroke-width="0.75" opacity="1" stroke-opacity="1" fill="none"/>
          </g>
          <g id="Fig:densplot_01.xyplot.lines.group.3.panel.1.1.1">
            <polyline id="Fig:densplot_01.xyplot.lines.group.3.panel.1.1.1.1" points="62.43,53.97 62.81,53.97 63.2,53.98 63.58,54 63.97,54.09 64.35,54.29 64.74,54.66 65.12,55.25 65.5,56.02 65.89,56.78 66.27,57.31 66.66,57.57 67.04,57.81 67.43,58.59 67.81,60.72 68.2,65.3 68.58,73.47 68.97,85.93 69.35,102.49 69.73,122.17 70.12,143.22 70.5,163.08 70.89,178.98 71.27,189.05 71.66,193.21 72.04,192.61 72.43,188.27 72.81,180.91 73.2,171.56 73.58,161.54 73.96,151.91 74.35,142.96 74.73,134.57 75.12,126.68 75.5,119.59 75.89,113.54 76.27,108.47 76.66,104.11 77.04,100.29 77.42,97.07 77.81,94.32 78.19,91.71 78.58,89.11 78.96,86.69 79.35,84.53 79.73,82.58 80.12,80.9 80.5,79.51 80.89,78.33 81.27,77.23 81.65,76.17 82.04,75.13 82.42,74.14 82.81,73.22 83.19,72.35 83.58,71.4 83.96,70.34 84.35,69.37 84.73,68.69 85.12,68.18 85.5,67.71 85.88,67.19 86.27,66.64 86.65,66.04 87.04,65.4 87.42,64.81 87.81,64.39 88.19,64.09 88.58,63.79 88.96,63.41 89.34,62.99 89.73,62.65 90.11,62.43 90.5,62.24 90.88,61.99 91.27,61.66 91.65,61.35 92.04,61.11 92.42,60.92 92.81,60.71 93.19,60.43 93.57,60.13 93.96,59.88 94.34,59.73 94.73,59.71 95.11,59.7 95.5,59.59 95.88,59.36 96.27,59.1 96.65,58.9 97.04,58.77 97.42,58.66 97.8,58.56 98.19,58.44 98.57,58.32 98.96,58.18 99.34,58.06 99.73,57.97 100.11,57.88 100.5,57.74 100.88,57.59 101.26,57.5 101.65,57.48 102.03,57.46 102.42,57.39 102.8,57.3 103.19,57.17 103.57,57.03 103.96,56.92 104.34,56.87 104.73,56.86 105.11,56.84 105.49,56.78 105.88,56.72 106.26,56.67 106.65,56.61 107.03,56.54 107.42,56.46 107.8,56.41 108.19,56.38 108.57,56.36 108.96,56.35 109.34,56.32 109.72,56.27 110.11,56.18 110.49,56.1 110.88,56.06 111.26,56.02 111.65,55.98 112.03,55.94 112.42,55.91 112.8,55.9 113.19,55.89 113.57,55.85 113.95,55.76 114.34,55.65 114.72,55.56 115.11,55.52 115.49,55.52 115.88,55.52 116.26,55.5 116.65,55.49 117.03,55.51 117.41,55.54 117.8,55.53 118.18,55.46 118.57,55.38 118.95,55.33 119.34,55.3 119.72,55.27 120.11,55.23 120.49,55.18 120.88,55.15 121.26,55.17 121.64,55.23 122.03,55.29 122.41,55.3 122.8,55.25 123.18,55.19 123.57,55.14 123.95,55.07 124.34,54.99 124.72,54.96 125.11,54.97 125.49,54.97 125.87,54.96 126.26,54.96 126.64,54.99 127.03,55.05 127.41,55.09 127.8,55.07 128.18,55 128.57,54.92 128.95,54.86 129.33,54.86 129.72,54.9 130.1,54.96 130.49,55 130.87,54.99 131.26,54.94 131.64,54.86 132.03,54.79 132.41,54.75 132.8,54.73 133.18,54.73 133.56,54.73 133.95,54.74 134.33,54.75 134.72,54.76 135.1,54.77 135.49,54.78 135.87,54.78 136.26,54.79 136.64,54.79 137.03,54.77 137.41,54.71 137.79,54.65 138.18,54.61 138.56,54.6 138.95,54.62 139.33,54.64 139.72,54.63 140.1,54.59 140.49,54.58 140.87,54.6 141.26,54.63 141.64,54.65 142.02,54.65 142.41,54.62 142.79,54.58 143.18,54.56 143.56,54.55 143.95,54.55 144.33,54.54 144.72,54.53 145.1,54.51 145.48,54.51 145.87,54.51 146.25,54.51 146.64,54.52 147.02,54.55 147.41,54.58 147.79,54.57 148.18,54.56 148.56,54.57 148.95,54.59 149.33,54.59 149.71,54.59 150.1,54.57 150.48,54.53 150.87,54.49 151.25,54.45 151.64,54.43 152.02,54.42 152.41,54.4 152.79,54.36 153.18,54.33 153.56,54.32 153.94,54.35 154.33,54.38 154.71,54.38 155.1,54.36 155.48,54.34 155.87,54.34 156.25,54.35 156.64,54.37 157.02,54.39 157.4,54.4 157.79,54.41 158.17,54.41 158.56,54.39 158.94,54.38 159.33,54.36 159.71,54.33 160.1,54.32 160.48,54.33 160.87,54.34 161.25,54.33 161.63,54.31 162.02,54.3 162.4,54.32 162.79,54.33 163.17,54.29 163.56,54.25 163.94,54.23 164.33,54.24 164.71,54.27 165.1,54.28 165.48,54.29 165.86,54.28 166.25,54.25 166.63,54.24 167.02,54.22 167.4,54.22 167.79,54.24 168.17,54.26 168.56,54.29 168.94,54.31 169.32,54.3 169.71,54.27 170.09,54.25 170.48,54.25 170.86,54.28 171.25,54.31 171.63,54.31 172.02,54.28 172.4,54.23 172.79,54.21 173.17,54.23 173.55,54.26 173.94,54.28 174.32,54.27 174.71,54.26 175.09,54.25 175.48,54.24 175.86,54.24 176.25,54.24 176.63,54.24 177.02,54.22 177.4,54.22 177.78,54.23 178.17,54.24 178.55,54.24 178.94,54.22 179.32,54.2 179.71,54.18 180.09,54.17 180.48,54.17 180.86,54.17 181.25,54.18 181.63,54.19 182.01,54.21 182.4,54.22 182.78,54.22 183.17,54.23 183.55,54.24 183.94,54.26 184.32,54.27 184.71,54.27 185.09,54.27 185.47,54.24 185.86,54.21 186.24,54.18 186.63,54.18 187.01,54.2 187.4,54.22 187.78,54.23 188.17,54.22 188.55,54.2 188.94,54.19 189.32,54.18 189.7,54.17 190.09,54.17 190.47,54.17 190.86,54.17 191.24,54.18 191.63,54.19 192.01,54.19 192.4,54.19 192.78,54.18 193.17,54.16 193.55,54.15 193.93,54.15 194.32,54.16 194.7,54.18 195.09,54.2 195.47,54.21 195.86,54.2 196.24,54.18 196.63,54.16 197.01,54.16 197.39,54.16 197.78,54.17 198.16,54.16 198.55,54.15 198.93,54.14 199.32,54.13 199.7,54.13 200.09,54.14 200.47,54.16 200.86,54.17 201.24,54.18 201.62,54.17 202.01,54.15 202.39,54.14 202.78,54.14 203.16,54.15 203.55,54.16 203.93,54.15 204.32,54.14 204.7,54.12 205.09,54.1 205.47,54.09 205.85,54.09 206.24,54.1 206.62,54.11 207.01,54.11 207.39,54.1 207.78,54.1 208.16,54.11 208.55,54.14 208.93,54.15 209.31,54.15 209.7,54.15 210.08,54.14 210.47,54.12 210.85,54.11 211.24,54.12 211.62,54.13 212.01,54.13 212.39,54.12 212.78,54.12 213.16,54.1 213.54,54.09 213.93,54.09 214.31,54.1 214.7,54.11 215.08,54.12 215.47,54.12 215.85,54.12 216.24,54.1 216.62,54.09 217.01,54.09 217.39,54.09 217.77,54.1 218.16,54.1 218.54,54.09 218.93,54.1 219.31,54.11 219.7,54.13 220.08,54.15 220.47,54.15 220.85,54.13 221.24,54.11 221.62,54.1 222,54.08 222.39,54.07 222.77,54.06 223.16,54.07 223.54,54.09 223.93,54.1 224.31,54.1 224.7,54.09 225.08,54.07 225.46,54.07 225.85,54.08 226.23,54.09 226.62,54.08 227,54.08 227.39,54.08 227.77,54.09 228.16,54.09 228.54,54.09 228.93,54.09 229.31,54.09 229.69,54.1 230.08,54.1 230.46,54.1 230.85,54.09 231.23,54.08 231.62,54.08 232,54.08 232.39,54.07 232.77,54.07 233.16,54.07 233.54,54.05 233.92,54.05 234.31,54.06 234.69,54.07 235.08,54.08 235.46,54.07 235.85,54.06 236.23,54.05 236.62,54.06 237,54.07 237.38,54.07 237.77,54.08 238.15,54.08 238.54,54.08 238.92,54.06 239.31,54.05 239.69,54.04 240.08,54.05 240.46,54.07 240.85,54.08 241.23,54.08 241.61,54.08 242,54.08 242.38,54.08 242.77,54.08 243.15,54.09 243.54,54.09 243.92,54.08 244.31,54.06 244.69,54.05 245.08,54.05 245.46,54.06 245.84,54.06 246.23,54.07 246.61,54.07 247,54.06 247.38,54.07 247.77,54.08 248.15,54.09 248.54,54.09 248.92,54.08 249.31,54.07 249.69,54.07 250.07,54.07 250.46,54.07 250.84,54.06 251.23,54.05 251.61,54.04 252,54.05 252.38,54.06 252.77,54.07 253.15,54.09 253.53,54.11 253.92,54.11 254.3,54.1 254.69,54.09 255.07,54.07 255.46,54.06 255.84,54.06 256.23,54.07 256.61,54.06 257,54.04 257.38,54.02 257.76,53.99 258.15,53.97 258.53,53.97 258.92,53.97" stroke-dasharray="none" stroke="rgb(31,120,180)" stroke-width="0.75" opacity="1" stroke-opacity="1" fill="none"/>
          </g>
          <g id="Fig:densplot_01.xyplot.lines.group.4.panel.1.1.1">
            <polyline id="Fig:densplot_01.xyplot.lines.group.4.panel.1.1.1.1" points="62.65,53.97 63.04,53.97 63.42,53.98 63.81,54 64.19,54.05 64.58,54.15 64.96,54.3 65.35,54.5 65.73,54.75 66.12,55.03 66.5,55.39 66.89,55.94 67.27,56.82 67.66,58.32 68.04,60.82 68.43,64.84 68.81,70.92 69.2,79.48 69.58,90.61 69.97,103.87 70.35,118.22 70.74,132.31 71.12,144.87 71.51,154.97 71.89,161.86 72.28,165.11 72.66,164.97 73.05,162.37 73.43,158.28 73.81,153.28 74.2,147.67 74.58,141.78 74.97,135.95 75.35,130.33 75.74,125 76.12,120 76.51,115.39 76.89,111.17 77.28,107.34 77.66,103.91 78.05,100.95 78.43,98.35 78.82,95.91 79.2,93.46 79.59,91.04 79.97,88.82 80.36,86.9 80.74,85.28 81.13,83.85 81.51,82.51 81.9,81.23 82.28,79.95 82.67,78.68 83.05,77.46 83.44,76.4 83.82,75.48 84.21,74.64 84.59,73.8 84.98,72.96 85.36,72.13 85.75,71.32 86.13,70.52 86.52,69.76 86.9,69.1 87.29,68.57 87.67,68.12 88.06,67.69 88.44,67.23 88.83,66.74 89.21,66.26 89.6,65.82 89.98,65.43 90.37,65.07 90.75,64.7 91.14,64.33 91.52,63.94 91.91,63.56 92.29,63.21 92.68,62.94 93.06,62.72 93.44,62.51 93.83,62.27 94.21,61.99 94.6,61.71 94.98,61.43 95.37,61.17 95.75,60.95 96.14,60.75 96.52,60.57 96.91,60.36 97.29,60.15 97.68,59.95 98.06,59.77 98.45,59.58 98.83,59.4 99.22,59.29 99.6,59.25 99.99,59.21 100.37,59.13 100.76,58.96 101.14,58.77 101.53,58.6 101.91,58.47 102.3,58.35 102.68,58.24 103.07,58.14 103.45,58.07 103.84,58.06 104.22,58.08 104.61,58.1 104.99,58.06 105.38,57.97 105.76,57.87 106.15,57.77 106.53,57.67 106.92,57.56 107.3,57.43 107.69,57.3 108.07,57.19 108.46,57.1 108.84,57.04 109.23,57 109.61,56.99 110,56.98 110.38,56.96 110.77,56.92 111.15,56.86 111.54,56.79 111.92,56.7 112.3,56.62 112.69,56.54 113.07,56.46 113.46,56.42 113.84,56.41 114.23,56.42 114.61,56.41 115,56.37 115.38,56.32 115.77,56.28 116.15,56.23 116.54,56.16 116.92,56.09 117.31,56.06 117.69,56.04 118.08,56.02 118.46,55.99 118.85,55.93 119.23,55.86 119.62,55.81 120,55.79 120.39,55.77 120.77,55.75 121.16,55.72 121.54,55.68 121.93,55.64 122.31,55.61 122.7,55.59 123.08,55.58 123.47,55.56 123.85,55.53 124.24,55.49 124.62,55.47 125.01,55.45 125.39,55.44 125.78,55.41 126.16,55.38 126.55,55.34 126.93,55.3 127.32,55.28 127.7,55.28 128.09,55.27 128.47,55.25 128.86,55.22 129.24,55.2 129.63,55.2 130.01,55.2 130.4,55.2 130.78,55.18 131.17,55.15 131.55,55.12 131.93,55.08 132.32,55.05 132.7,55.02 133.09,55 133.47,54.98 133.86,54.96 134.24,54.95 134.63,54.94 135.01,54.94 135.4,54.94 135.78,54.94 136.17,54.92 136.55,54.91 136.94,54.9 137.32,54.88 137.71,54.86 138.09,54.82 138.48,54.79 138.86,54.77 139.25,54.78 139.63,54.78 140.02,54.78 140.4,54.77 140.79,54.77 141.17,54.78 141.56,54.79 141.94,54.8 142.33,54.8 142.71,54.79 143.1,54.76 143.48,54.73 143.87,54.69 144.25,54.67 144.64,54.68 145.02,54.69 145.41,54.71 145.79,54.71 146.18,54.7 146.56,54.67 146.95,54.63 147.33,54.59 147.72,54.58 148.1,54.59 148.49,54.6 148.87,54.61 149.26,54.61 149.64,54.61 150.03,54.62 150.41,54.62 150.79,54.62 151.18,54.61 151.56,54.59 151.95,54.57 152.33,54.56 152.72,54.56 153.1,54.56 153.49,54.55 153.87,54.54 154.26,54.52 154.64,54.51 155.03,54.51 155.41,54.51 155.8,54.5 156.18,54.49 156.57,54.48 156.95,54.48 157.34,54.49 157.72,54.5 158.11,54.49 158.49,54.47 158.88,54.44 159.26,54.4 159.65,54.38 160.03,54.37 160.42,54.39 160.8,54.41 161.19,54.42 161.57,54.42 161.96,54.42 162.34,54.41 162.73,54.4 163.11,54.39 163.5,54.38 163.88,54.36 164.27,54.34 164.65,54.32 165.04,54.33 165.42,54.35 165.81,54.37 166.19,54.38 166.58,54.37 166.96,54.35 167.35,54.35 167.73,54.35 168.12,54.35 168.5,54.35 168.89,54.36 169.27,54.35 169.66,54.34 170.04,54.32 170.42,54.3 170.81,54.28 171.19,54.25 171.58,54.24 171.96,54.23 172.35,54.23 172.73,54.24 173.12,54.25 173.5,54.27 173.89,54.27 174.27,54.26 174.66,54.24 175.04,54.23 175.43,54.25 175.81,54.27 176.2,54.3 176.58,54.31 176.97,54.31 177.35,54.3 177.74,54.3 178.12,54.3 178.51,54.31 178.89,54.3 179.28,54.28 179.66,54.26 180.05,54.25 180.43,54.24 180.82,54.23 181.2,54.23 181.59,54.22 181.97,54.23 182.36,54.23 182.74,54.23 183.13,54.23 183.51,54.21 183.9,54.2 184.28,54.19 184.67,54.19 185.05,54.21 185.44,54.22 185.82,54.23 186.21,54.23 186.59,54.22 186.98,54.21 187.36,54.2 187.75,54.2 188.13,54.2 188.52,54.2 188.9,54.21 189.28,54.2 189.67,54.2 190.05,54.19 190.44,54.19 190.82,54.19 191.21,54.19 191.59,54.18 191.98,54.17 192.36,54.17 192.75,54.18 193.13,54.19 193.52,54.18 193.9,54.18 194.29,54.17 194.67,54.18 195.06,54.19 195.44,54.2 195.83,54.2 196.21,54.2 196.6,54.19 196.98,54.18 197.37,54.17 197.75,54.16 198.14,54.15 198.52,54.15 198.91,54.14 199.29,54.14 199.68,54.13 200.06,54.13 200.45,54.13 200.83,54.14 201.22,54.14 201.6,54.14 201.99,54.13 202.37,54.12 202.76,54.12 203.14,54.11 203.53,54.11 203.91,54.12 204.3,54.13 204.68,54.13 205.07,54.13 205.45,54.13 205.84,54.13 206.22,54.13 206.61,54.13 206.99,54.13 207.38,54.13 207.76,54.13 208.15,54.12 208.53,54.11 208.91,54.1 209.3,54.1 209.68,54.11 210.07,54.11 210.45,54.12 210.84,54.13 211.22,54.15 211.61,54.16 211.99,54.17 212.38,54.17 212.76,54.16 213.15,54.15 213.53,54.13 213.92,54.12 214.3,54.11 214.69,54.1 215.07,54.09 215.46,54.09 215.84,54.08 216.23,54.08 216.61,54.08 217,54.09 217.38,54.09 217.77,54.1 218.15,54.1 218.54,54.11 218.92,54.11 219.31,54.12 219.69,54.12 220.08,54.11 220.46,54.1 220.85,54.1 221.23,54.1 221.62,54.09 222,54.09 222.39,54.09 222.77,54.09 223.16,54.09 223.54,54.1 223.93,54.1 224.31,54.11 224.7,54.12 225.08,54.13 225.47,54.13 225.85,54.14 226.24,54.13 226.62,54.13 227.01,54.12 227.39,54.12 227.77,54.11 228.16,54.11 228.54,54.11 228.93,54.1 229.31,54.1 229.7,54.1 230.08,54.1 230.47,54.1 230.85,54.1 231.24,54.1 231.62,54.09 232.01,54.08 232.39,54.06 232.78,54.05 233.16,54.05 233.55,54.05 233.93,54.05 234.32,54.06 234.7,54.06 235.09,54.05 235.47,54.05 235.86,54.05 236.24,54.06 236.63,54.06 237.01,54.06 237.4,54.06 237.78,54.06 238.17,54.06 238.55,54.06 238.94,54.06 239.32,54.06 239.71,54.07 240.09,54.07 240.48,54.07 240.86,54.07 241.25,54.07 241.63,54.07 242.02,54.08 242.4,54.07 242.79,54.07 243.17,54.06 243.56,54.06 243.94,54.06 244.33,54.08 244.71,54.09 245.1,54.1 245.48,54.1 245.87,54.09 246.25,54.09 246.64,54.09 247.02,54.09 247.4,54.08 247.79,54.07 248.17,54.05 248.56,54.04 248.94,54.03 249.33,54.03 249.71,54.04 250.1,54.05 250.48,54.06 250.87,54.05 251.25,54.05 251.64,54.04 252.02,54.04 252.41,54.04 252.79,54.05 253.18,54.06 253.56,54.06 253.95,54.06 254.33,54.05 254.72,54.05 255.1,54.04 255.49,54.04 255.87,54.04 256.26,54.04 256.64,54.04 257.03,54.02 257.41,54 257.8,53.99 258.18,53.97 258.57,53.97 258.95,53.97 259.34,53.97" stroke-dasharray="none" stroke="rgb(31,120,180)" stroke-width="0.75" opacity="1" stroke-opacity="1" fill="none"/>
          </g>
          <g id="Fig:densplot_01.xyplot.lines.group.5.panel.1.1.1">
            <polyline id="Fig:densplot_01.xyplot.lines.group.5.panel.1.1.1.1" points="62.02,53.97 62.4,53.97 62.79,53.97 63.18,53.98 63.56,54.01 63.95,54.08 64.34,54.21 64.73,54.44 65.11,54.78 65.5,55.23 65.89,55.75 66.27,56.27 66.66,56.74 67.05,57.2 67.44,57.78 67.82,58.72 68.21,60.37 68.6,63.13 68.99,67.34 69.37,73.21 69.76,80.81 70.15,89.94 70.53,100.17 70.92,110.85 71.31,121.21 71.7,130.48 72.08,138.03 72.47,143.49 72.86,146.77 73.24,148.03 73.63,147.49 74.02,145.45 74.41,142.25 74.79,138.22 75.18,133.71 75.57,128.97 75.95,124.26 76.34,119.77 76.73,115.64 77.12,111.87 77.5,108.41 77.89,105.2 78.28,102.21 78.67,99.42 79.05,96.83 79.44,94.41 79.83,92.11 80.21,89.95 80.6,87.93 80.99,86.12 81.38,84.54 81.76,83.19 82.15,81.99 82.54,80.87 82.92,79.79 83.31,78.76 83.7,77.76 84.09,76.81 84.47,75.92 84.86,75.08 85.25,74.31 85.63,73.6 86.02,72.93 86.41,72.27 86.8,71.6 87.18,70.92 87.57,70.26 87.96,69.64 88.35,69.08 88.73,68.59 89.12,68.15 89.51,67.73 89.89,67.3 90.28,66.85 90.67,66.43 91.06,66.08 91.44,65.79 91.83,65.52 92.22,65.2 92.6,64.83 92.99,64.46 93.38,64.13 93.77,63.87 94.15,63.64 94.54,63.41 94.93,63.14 95.32,62.84 95.7,62.56 96.09,62.32 96.48,62.13 96.86,61.99 97.25,61.86 97.64,61.7 98.03,61.53 98.41,61.37 98.8,61.22 99.19,61.09 99.57,60.96 99.96,60.82 100.35,60.67 100.74,60.5 101.12,60.34 101.51,60.17 101.9,60 102.28,59.83 102.67,59.66 103.06,59.49 103.45,59.33 103.83,59.18 104.22,59.06 104.61,58.98 105,58.92 105.38,58.86 105.77,58.78 106.16,58.68 106.54,58.58 106.93,58.49 107.32,58.43 107.71,58.4 108.09,58.37 108.48,58.32 108.87,58.26 109.25,58.19 109.64,58.11 110.03,58.02 110.42,57.92 110.8,57.83 111.19,57.72 111.58,57.62 111.96,57.51 112.35,57.42 112.74,57.35 113.13,57.31 113.51,57.28 113.9,57.26 114.29,57.24 114.68,57.21 115.06,57.17 115.45,57.13 115.84,57.09 116.22,57.04 116.61,56.98 117,56.92 117.39,56.85 117.77,56.79 118.16,56.72 118.55,56.65 118.93,56.57 119.32,56.5 119.71,56.44 120.1,56.4 120.48,56.36 120.87,56.33 121.26,56.3 121.65,56.27 122.03,56.24 122.42,56.22 122.81,56.19 123.19,56.15 123.58,56.11 123.97,56.07 124.36,56.02 124.74,55.98 125.13,55.95 125.52,55.94 125.9,55.95 126.29,55.97 126.68,55.99 127.07,55.98 127.45,55.95 127.84,55.91 128.23,55.88 128.61,55.85 129,55.83 129.39,55.81 129.78,55.77 130.16,55.73 130.55,55.68 130.94,55.65 131.33,55.64 131.71,55.63 132.1,55.62 132.49,55.6 132.87,55.57 133.26,55.54 133.65,55.51 134.04,55.5 134.42,55.49 134.81,55.49 135.2,55.48 135.58,55.47 135.97,55.44 136.36,55.41 136.75,55.36 137.13,55.31 137.52,55.26 137.91,55.24 138.29,55.23 138.68,55.25 139.07,55.26 139.46,55.27 139.84,55.26 140.23,55.24 140.62,55.21 141.01,55.19 141.39,55.16 141.78,55.14 142.17,55.11 142.55,55.09 142.94,55.07 143.33,55.05 143.72,55.03 144.1,55.02 144.49,55.02 144.88,55.01 145.26,55 145.65,54.98 146.04,54.96 146.43,54.93 146.81,54.92 147.2,54.91 147.59,54.91 147.98,54.92 148.36,54.92 148.75,54.91 149.14,54.89 149.52,54.89 149.91,54.89 150.3,54.9 150.69,54.9 151.07,54.9 151.46,54.9 151.85,54.89 152.23,54.88 152.62,54.88 153.01,54.87 153.4,54.87 153.78,54.88 154.17,54.88 154.56,54.88 154.94,54.86 155.33,54.83 155.72,54.8 156.11,54.78 156.49,54.78 156.88,54.79 157.27,54.8 157.66,54.81 158.04,54.8 158.43,54.79 158.82,54.77 159.2,54.75 159.59,54.72 159.98,54.69 160.37,54.67 160.75,54.67 161.14,54.67 161.53,54.67 161.91,54.67 162.3,54.66 162.69,54.64 163.08,54.61 163.46,54.59 163.85,54.57 164.24,54.56 164.63,54.55 165.01,54.54 165.4,54.53 165.79,54.53 166.17,54.53 166.56,54.55 166.95,54.58 167.34,54.62 167.72,54.65 168.11,54.67 168.5,54.68 168.88,54.67 169.27,54.65 169.66,54.64 170.05,54.62 170.43,54.6 170.82,54.58 171.21,54.55 171.59,54.53 171.98,54.51 172.37,54.49 172.76,54.49 173.14,54.49 173.53,54.5 173.92,54.51 174.31,54.51 174.69,54.52 175.08,54.51 175.47,54.51 175.85,54.5 176.24,54.48 176.63,54.46 177.02,54.44 177.4,54.43 177.79,54.41 178.18,54.41 178.56,54.41 178.95,54.42 179.34,54.43 179.73,54.44 180.11,54.44 180.5,54.45 180.89,54.46 181.27,54.46 181.66,54.46 182.05,54.45 182.44,54.44 182.82,54.43 183.21,54.42 183.6,54.42 183.99,54.42 184.37,54.42 184.76,54.42 185.15,54.43 185.53,54.44 185.92,54.44 186.31,54.43 186.7,54.42 187.08,54.4 187.47,54.38 187.86,54.37 188.24,54.37 188.63,54.38 189.02,54.38 189.41,54.38 189.79,54.38 190.18,54.36 190.57,54.35 190.96,54.33 191.34,54.31 191.73,54.29 192.12,54.28 192.5,54.29 192.89,54.3 193.28,54.31 193.67,54.32 194.05,54.33 194.44,54.33 194.83,54.33 195.21,54.33 195.6,54.33 195.99,54.34 196.38,54.34 196.76,54.34 197.15,54.34 197.54,54.34 197.92,54.33 198.31,54.33 198.7,54.33 199.09,54.33 199.47,54.33 199.86,54.33 200.25,54.33 200.64,54.33 201.02,54.32 201.41,54.31 201.8,54.31 202.18,54.31 202.57,54.3 202.96,54.3 203.35,54.3 203.73,54.3 204.12,54.29 204.51,54.27 204.89,54.26 205.28,54.26 205.67,54.26 206.06,54.27 206.44,54.28 206.83,54.28 207.22,54.28 207.6,54.27 207.99,54.26 208.38,54.25 208.77,54.25 209.15,54.25 209.54,54.25 209.93,54.26 210.32,54.26 210.7,54.25 211.09,54.25 211.48,54.24 211.86,54.23 212.25,54.22 212.64,54.21 213.03,54.21 213.41,54.21 213.8,54.21 214.19,54.21 214.57,54.2 214.96,54.19 215.35,54.18 215.74,54.18 216.12,54.19 216.51,54.2 216.9,54.21 217.29,54.22 217.67,54.22 218.06,54.22 218.45,54.21 218.83,54.21 219.22,54.22 219.61,54.22 220,54.22 220.38,54.22 220.77,54.22 221.16,54.22 221.54,54.22 221.93,54.22 222.32,54.23 222.71,54.23 223.09,54.24 223.48,54.23 223.87,54.23 224.25,54.22 224.64,54.21 225.03,54.2 225.42,54.19 225.8,54.19 226.19,54.18 226.58,54.17 226.97,54.17 227.35,54.17 227.74,54.17 228.13,54.17 228.51,54.17 228.9,54.16 229.29,54.16 229.68,54.15 230.06,54.16 230.45,54.16 230.84,54.17 231.22,54.17 231.61,54.18 232,54.18 232.39,54.18 232.77,54.19 233.16,54.19 233.55,54.19 233.93,54.18 234.32,54.17 234.71,54.17 235.1,54.16 235.48,54.16 235.87,54.16 236.26,54.16 236.65,54.16 237.03,54.16 237.42,54.17 237.81,54.18 238.19,54.18 238.58,54.19 238.97,54.2 239.36,54.2 239.74,54.2 240.13,54.2 240.52,54.19 240.9,54.19 241.29,54.18 241.68,54.18 242.07,54.17 242.45,54.16 242.84,54.15 243.23,54.14 243.62,54.14 244,54.14 244.39,54.14 244.78,54.14 245.16,54.14 245.55,54.14 245.94,54.14 246.33,54.14 246.71,54.14 247.1,54.14 247.49,54.14 247.87,54.14 248.26,54.13 248.65,54.13 249.04,54.13 249.42,54.12 249.81,54.12 250.2,54.12 250.58,54.11 250.97,54.1 251.36,54.09 251.75,54.09 252.13,54.09 252.52,54.1 252.91,54.1 253.3,54.11 253.68,54.12 254.07,54.12 254.46,54.13 254.84,54.14 255.23,54.14 255.62,54.15 256.01,54.15 256.39,54.13 256.78,54.11 257.17,54.08 257.55,54.04 257.94,54.01 258.33,53.99 258.72,53.98 259.1,53.97 259.49,53.97 259.88,53.97" stroke-dasharray="none" stroke="rgb(31,120,180)" stroke-width="0.75" opacity="1" stroke-opacity="1" fill="none"/>
          </g>
          <g id="Fig:densplot_01.xyplot.lines.group.6.panel.1.1.1">
            <polyline id="Fig:densplot_01.xyplot.lines.group.6.panel.1.1.1.1" points="62.41,53.97 62.79,53.97 63.17,53.99 63.56,54.04 63.94,54.16 64.33,54.38 64.71,54.71 65.09,55.12 65.48,55.75 65.86,56.84 66.24,58.93 66.63,63.12 67.01,71.06 67.4,84.45 67.78,104.38 68.16,130.23 68.55,158.67 68.93,185.03 69.31,205.16 69.7,217.42 70.08,222.22 70.47,219.78 70.85,211.37 71.23,199.48 71.62,186.39 72,173.51 72.39,160.73 72.77,148.1 73.15,136.66 73.54,127.32 73.92,119.93 74.3,113.72 74.69,108.14 75.07,102.73 75.46,97.86 75.84,93.95 76.22,90.78 76.61,87.92 76.99,85.23 77.37,82.93 77.76,80.93 78.14,78.95 78.53,77.21 78.91,75.78 79.29,74.54 79.68,73.47 80.06,72.43 80.44,71.23 80.83,70.14 81.21,69.44 81.6,68.82 81.98,67.95 82.36,67.13 82.75,66.73 83.13,66.2 83.52,65.4 83.9,64.72 84.28,64.1 84.67,63.55 85.05,63.22 85.43,63.11 85.82,62.9 86.2,62.5 86.59,62 86.97,61.59 87.35,61.37 87.74,61.15 88.12,60.81 88.5,60.46 88.89,60.16 89.27,59.99 89.66,59.83 90.04,59.6 90.42,59.43 90.81,59.37 91.19,59.24 91.57,58.98 91.96,58.67 92.34,58.45 92.73,58.36 93.11,58.31 93.49,58.2 93.88,58.05 94.26,57.91 94.64,57.77 95.03,57.68 95.41,57.64 95.8,57.63 96.18,57.63 96.56,57.53 96.95,57.32 97.33,57.13 97.72,57.03 98.1,57 98.48,56.95 98.87,56.81 99.25,56.67 99.63,56.55 100.02,56.46 100.4,56.44 100.79,56.51 101.17,56.55 101.55,56.49 101.94,56.34 102.32,56.22 102.7,56.12 103.09,56.05 103.47,56.02 103.86,56 104.24,55.97 104.62,55.94 105.01,55.88 105.39,55.78 105.77,55.7 106.16,55.71 106.54,55.77 106.93,55.84 107.31,55.84 107.69,55.78 108.08,55.7 108.46,55.62 108.84,55.5 109.23,55.41 109.61,55.4 110,55.42 110.38,55.44 110.76,55.41 111.15,55.29 111.53,55.18 111.92,55.15 112.3,55.24 112.68,55.29 113.07,55.26 113.45,55.21 113.83,55.15 114.22,55.1 114.6,55.04 114.99,55 115.37,55.01 115.75,55.05 116.14,55.07 116.52,55.08 116.9,55.1 117.29,55.07 117.67,54.96 118.06,54.85 118.44,54.83 118.82,54.89 119.21,54.9 119.59,54.85 119.97,54.8 120.36,54.78 120.74,54.81 121.13,54.84 121.51,54.86 121.89,54.85 122.28,54.81 122.66,54.78 123.05,54.77 123.43,54.75 123.81,54.69 124.2,54.63 124.58,54.61 124.96,54.61 125.35,54.59 125.73,54.58 126.12,54.6 126.5,54.61 126.88,54.6 127.27,54.63 127.65,54.67 128.03,54.68 128.42,54.64 128.8,54.57 129.19,54.55 129.57,54.56 129.95,54.57 130.34,54.59 130.72,54.62 131.1,54.61 131.49,54.58 131.87,54.58 132.26,54.58 132.64,54.59 133.02,54.57 133.41,54.53 133.79,54.52 134.17,54.57 134.56,54.62 134.94,54.62 135.33,54.58 135.71,54.54 136.09,54.49 136.48,54.47 136.86,54.5 137.25,54.5 137.63,54.45 138.01,54.4 138.4,54.39 138.78,54.39 139.16,54.38 139.55,54.35 139.93,54.32 140.32,54.29 140.7,54.3 141.08,54.33 141.47,54.37 141.85,54.4 142.23,54.4 142.62,54.38 143,54.35 143.39,54.34 143.77,54.33 144.15,54.31 144.54,54.29 144.92,54.28 145.3,54.3 145.69,54.34 146.07,54.36 146.46,54.35 146.84,54.33 147.22,54.33 147.61,54.32 147.99,54.29 148.37,54.26 148.76,54.28 149.14,54.31 149.53,54.31 149.91,54.31 150.29,54.31 150.68,54.29 151.06,54.26 151.45,54.23 151.83,54.21 152.21,54.22 152.6,54.23 152.98,54.24 153.36,54.24 153.75,54.23 154.13,54.23 154.52,54.25 154.9,54.28 155.28,54.27 155.67,54.21 156.05,54.17 156.43,54.18 156.82,54.19 157.2,54.18 157.59,54.19 157.97,54.22 158.35,54.24 158.74,54.22 159.12,54.16 159.5,54.13 159.89,54.12 160.27,54.15 160.66,54.2 161.04,54.24 161.42,54.27 161.81,54.25 162.19,54.22 162.58,54.17 162.96,54.16 163.34,54.17 163.73,54.18 164.11,54.19 164.49,54.19 164.88,54.2 165.26,54.21 165.65,54.24 166.03,54.26 166.41,54.26 166.8,54.22 167.18,54.18 167.56,54.18 167.95,54.19 168.33,54.2 168.72,54.2 169.1,54.18 169.48,54.15 169.87,54.14 170.25,54.16 170.63,54.18 171.02,54.18 171.4,54.17 171.79,54.18 172.17,54.18 172.55,54.14 172.94,54.11 173.32,54.1 173.7,54.1 174.09,54.12 174.47,54.14 174.86,54.16 175.24,54.17 175.62,54.15 176.01,54.13 176.39,54.13 176.78,54.14 177.16,54.13 177.54,54.11 177.93,54.12 178.31,54.14 178.69,54.16 179.08,54.17 179.46,54.15 179.85,54.12 180.23,54.11 180.61,54.12 181,54.12 181.38,54.11 181.76,54.12 182.15,54.15 182.53,54.18 182.92,54.19 183.3,54.18 183.68,54.16 184.07,54.13 184.45,54.1 184.83,54.09 185.22,54.1 185.6,54.1 185.99,54.1 186.37,54.13 186.75,54.15 187.14,54.13 187.52,54.1 187.91,54.07 188.29,54.07 188.67,54.11 189.06,54.14 189.44,54.14 189.82,54.14 190.21,54.12 190.59,54.1 190.98,54.1 191.36,54.11 191.74,54.12 192.13,54.11 192.51,54.08 192.89,54.06 193.28,54.05 193.66,54.05 194.05,54.05 194.43,54.06 194.81,54.08 195.2,54.09 195.58,54.09 195.96,54.09 196.35,54.09 196.73,54.08 197.12,54.07 197.5,54.07 197.88,54.08 198.27,54.09 198.65,54.08 199.03,54.07 199.42,54.07 199.8,54.08 200.19,54.1 200.57,54.1 200.95,54.1 201.34,54.1 201.72,54.09 202.11,54.08 202.49,54.07 202.87,54.07 203.26,54.07 203.64,54.08 204.02,54.08 204.41,54.09 204.79,54.09 205.18,54.09 205.56,54.07 205.94,54.06 206.33,54.08 206.71,54.09 207.09,54.09 207.48,54.09 207.86,54.08 208.25,54.07 208.63,54.07 209.01,54.07 209.4,54.05 209.78,54.04 210.16,54.03 210.55,54.04 210.93,54.04 211.32,54.04 211.7,54.04 212.08,54.04 212.47,54.05 212.85,54.05 213.23,54.05 213.62,54.04 214,54.04 214.39,54.04 214.77,54.04 215.15,54.06 215.54,54.09 215.92,54.1 216.31,54.08 216.69,54.07 217.07,54.07 217.46,54.05 217.84,54.03 218.22,54.01 218.61,54.01 218.99,54.02 219.38,54.02 219.76,54.02 220.14,54.03 220.53,54.05 220.91,54.05 221.29,54.03 221.68,54.02 222.06,54.04 222.45,54.06 222.83,54.08 223.21,54.07 223.6,54.06 223.98,54.05 224.36,54.04 224.75,54.04 225.13,54.05 225.52,54.05 225.9,54.05 226.28,54.05 226.67,54.04 227.05,54.04 227.44,54.06 227.82,54.07 228.2,54.07 228.59,54.05 228.97,54.04 229.35,54.03 229.74,54.04 230.12,54.04 230.51,54.03 230.89,54.02 231.27,54.02 231.66,54.02 232.04,54.02 232.42,54.02 232.81,54.02 233.19,54.03 233.58,54.03 233.96,54.05 234.34,54.07 234.73,54.08 235.11,54.08 235.49,54.07 235.88,54.06 236.26,54.06 236.65,54.06 237.03,54.07 237.41,54.07 237.8,54.05 238.18,54.04 238.56,54.02 238.95,54.01 239.33,54.01 239.72,54.01 240.1,54.02 240.48,54 240.87,53.99 241.25,54 241.64,54.01 242.02,54.01 242.4,54.03 242.79,54.03 243.17,54.02 243.55,54.02 243.94,54.01 244.32,54.02 244.71,54.03 245.09,54.04 245.47,54.04 245.86,54.02 246.24,54.01 246.62,54.01 247.01,54.01 247.39,54.02 247.78,54.03 248.16,54.04 248.54,54.04 248.93,54.04 249.31,54.03 249.69,54.02 250.08,54.02 250.46,54.02 250.85,54.03 251.23,54.05 251.61,54.05 252,54.04 252.38,54.01 252.76,54.01 253.15,54.01 253.53,54.02 253.92,54.01 254.3,54 254.68,54.01 255.07,54.03 255.45,54.04 255.84,54.03 256.22,54.02 256.6,54.03 256.99,54.02 257.37,54 257.75,53.98 258.14,53.97 258.52,53.97" stroke-dasharray="none" stroke="rgb(31,120,180)" stroke-width="0.75" opacity="1" stroke-opacity="1" fill="none"/>
          </g>
          <g id="Fig:densplot_01.xyplot.lines.group.7.panel.1.1.1">
            <polyline id="Fig:densplot_01.xyplot.lines.group.7.panel.1.1.1.1" points="60.89,53.97 61.29,53.97 61.68,53.97 62.07,53.97 62.47,53.98 62.86,53.99 63.25,54.01 63.65,54.05 64.04,54.11 64.43,54.2 64.82,54.33 65.22,54.5 65.61,54.72 66,55 66.4,55.34 66.79,55.75 67.18,56.25 67.58,56.86 67.97,57.64 68.36,58.65 68.76,59.98 69.15,61.75 69.54,64.01 69.94,66.81 70.33,70.14 70.72,73.95 71.12,78.15 71.51,82.59 71.9,87.09 72.3,91.47 72.69,95.55 73.08,99.2 73.47,102.28 73.87,104.75 74.26,106.56 74.65,107.75 75.05,108.35 75.44,108.44 75.83,108.09 76.23,107.38 76.62,106.41 77.01,105.26 77.41,103.99 77.8,102.64 78.19,101.25 78.59,99.86 78.98,98.47 79.37,97.1 79.77,95.74 80.16,94.41 80.55,93.11 80.94,91.84 81.34,90.6 81.73,89.39 82.12,88.23 82.52,87.1 82.91,86.01 83.3,84.96 83.7,83.95 84.09,82.98 84.48,82.05 84.88,81.17 85.27,80.32 85.66,79.52 86.06,78.77 86.45,78.07 86.84,77.42 87.24,76.82 87.63,76.27 88.02,75.74 88.42,75.24 88.81,74.74 89.2,74.25 89.59,73.76 89.99,73.27 90.38,72.8 90.77,72.35 91.17,71.91 91.56,71.5 91.95,71.1 92.35,70.71 92.74,70.33 93.13,69.96 93.53,69.59 93.92,69.24 94.31,68.89 94.71,68.56 95.1,68.24 95.49,67.93 95.89,67.62 96.28,67.32 96.67,67.02 97.06,66.73 97.46,66.44 97.85,66.15 98.24,65.86 98.64,65.58 99.03,65.3 99.42,65.02 99.82,64.75 100.21,64.5 100.6,64.26 101,64.05 101.39,63.86 101.78,63.7 102.18,63.56 102.57,63.45 102.96,63.35 103.36,63.25 103.75,63.16 104.14,63.05 104.54,62.94 104.93,62.82 105.32,62.68 105.71,62.54 106.11,62.4 106.5,62.26 106.89,62.12 107.29,61.99 107.68,61.85 108.07,61.72 108.47,61.59 108.86,61.47 109.25,61.35 109.65,61.23 110.04,61.11 110.43,60.98 110.83,60.86 111.22,60.73 111.61,60.6 112.01,60.48 112.4,60.36 112.79,60.25 113.18,60.15 113.58,60.05 113.97,59.95 114.36,59.85 114.76,59.75 115.15,59.64 115.54,59.53 115.94,59.43 116.33,59.33 116.72,59.23 117.12,59.14 117.51,59.07 117.9,59 118.3,58.95 118.69,58.9 119.08,58.85 119.48,58.8 119.87,58.74 120.26,58.69 120.66,58.63 121.05,58.57 121.44,58.51 121.83,58.45 122.23,58.4 122.62,58.34 123.01,58.29 123.41,58.23 123.8,58.16 124.19,58.09 124.59,58.02 124.98,57.94 125.37,57.86 125.77,57.78 126.16,57.71 126.55,57.66 126.95,57.61 127.34,57.56 127.73,57.53 128.13,57.49 128.52,57.45 128.91,57.41 129.3,57.36 129.7,57.31 130.09,57.26 130.48,57.2 130.88,57.15 131.27,57.1 131.66,57.05 132.06,57.02 132.45,56.99 132.84,56.96 133.24,56.94 133.63,56.92 134.02,56.9 134.42,56.88 134.81,56.85 135.2,56.83 135.6,56.8 135.99,56.77 136.38,56.74 136.78,56.7 137.17,56.66 137.56,56.62 137.95,56.57 138.35,56.52 138.74,56.47 139.13,56.42 139.53,56.37 139.92,56.33 140.31,56.29 140.71,56.25 141.1,56.23 141.49,56.21 141.89,56.2 142.28,56.2 142.67,56.19 143.07,56.19 143.46,56.19 143.85,56.18 144.25,56.17 144.64,56.16 145.03,56.15 145.43,56.13 145.82,56.1 146.21,56.08 146.6,56.06 147,56.04 147.39,56.02 147.78,56 148.18,55.98 148.57,55.96 148.96,55.94 149.36,55.92 149.75,55.89 150.14,55.87 150.54,55.84 150.93,55.82 151.32,55.8 151.72,55.77 152.11,55.75 152.5,55.73 152.9,55.71 153.29,55.69 153.68,55.66 154.07,55.64 154.47,55.61 154.86,55.58 155.25,55.55 155.65,55.53 156.04,55.51 156.43,55.49 156.83,55.47 157.22,55.45 157.61,55.44 158.01,55.42 158.4,55.41 158.79,55.4 159.19,55.39 159.58,55.38 159.97,55.37 160.37,55.36 160.76,55.35 161.15,55.35 161.55,55.34 161.94,55.33 162.33,55.31 162.72,55.3 163.12,55.28 163.51,55.26 163.9,55.24 164.3,55.22 164.69,55.2 165.08,55.18 165.48,55.16 165.87,55.14 166.26,55.13 166.66,55.11 167.05,55.1 167.44,55.09 167.84,55.08 168.23,55.08 168.62,55.08 169.02,55.07 169.41,55.07 169.8,55.07 170.19,55.07 170.59,55.07 170.98,55.06 171.37,55.06 171.77,55.06 172.16,55.06 172.55,55.06 172.95,55.05 173.34,55.05 173.73,55.06 174.13,55.06 174.52,55.05 174.91,55.05 175.31,55.04 175.7,55.03 176.09,55.02 176.49,55 176.88,54.99 177.27,54.97 177.67,54.96 178.06,54.95 178.45,54.94 178.84,54.93 179.24,54.92 179.63,54.91 180.02,54.9 180.42,54.89 180.81,54.88 181.2,54.87 181.6,54.86 181.99,54.85 182.38,54.85 182.78,54.84 183.17,54.83 183.56,54.83 183.96,54.82 184.35,54.82 184.74,54.82 185.14,54.82 185.53,54.82 185.92,54.82 186.31,54.81 186.71,54.81 187.1,54.8 187.49,54.79 187.89,54.78 188.28,54.76 188.67,54.75 189.07,54.74 189.46,54.73 189.85,54.72 190.25,54.71 190.64,54.7 191.03,54.68 191.43,54.67 191.82,54.66 192.21,54.65 192.61,54.64 193,54.63 193.39,54.63 193.79,54.62 194.18,54.62 194.57,54.62 194.96,54.62 195.36,54.62 195.75,54.61 196.14,54.61 196.54,54.61 196.93,54.6 197.32,54.6 197.72,54.6 198.11,54.6 198.5,54.6 198.9,54.6 199.29,54.6 199.68,54.6 200.08,54.59 200.47,54.59 200.86,54.58 201.26,54.58 201.65,54.57 202.04,54.57 202.43,54.56 202.83,54.56 203.22,54.56 203.61,54.56 204.01,54.56 204.4,54.55 204.79,54.55 205.19,54.54 205.58,54.53 205.97,54.52 206.37,54.52 206.76,54.52 207.15,54.51 207.55,54.52 207.94,54.52 208.33,54.53 208.73,54.54 209.12,54.54 209.51,54.54 209.91,54.54 210.3,54.54 210.69,54.53 211.08,54.52 211.48,54.5 211.87,54.49 212.26,54.48 212.66,54.47 213.05,54.47 213.44,54.46 213.84,54.45 214.23,54.45 214.62,54.45 215.02,54.45 215.41,54.44 215.8,54.44 216.2,54.44 216.59,54.44 216.98,54.44 217.38,54.43 217.77,54.43 218.16,54.42 218.55,54.42 218.95,54.41 219.34,54.41 219.73,54.4 220.13,54.4 220.52,54.4 220.91,54.4 221.31,54.4 221.7,54.4 222.09,54.4 222.49,54.4 222.88,54.4 223.27,54.4 223.67,54.4 224.06,54.4 224.45,54.39 224.85,54.39 225.24,54.39 225.63,54.39 226.03,54.39 226.42,54.39 226.81,54.39 227.2,54.38 227.6,54.38 227.99,54.37 228.38,54.37 228.78,54.36 229.17,54.36 229.56,54.35 229.96,54.35 230.35,54.35 230.74,54.35 231.14,54.36 231.53,54.36 231.92,54.36 232.32,54.36 232.71,54.36 233.1,54.36 233.5,54.36 233.89,54.35 234.28,54.35 234.67,54.34 235.07,54.33 235.46,54.32 235.85,54.31 236.25,54.31 236.64,54.3 237.03,54.3 237.43,54.3 237.82,54.3 238.21,54.31 238.61,54.31 239,54.32 239.39,54.32 239.79,54.33 240.18,54.33 240.57,54.33 240.97,54.33 241.36,54.33 241.75,54.33 242.15,54.33 242.54,54.32 242.93,54.32 243.32,54.32 243.72,54.31 244.11,54.31 244.5,54.3 244.9,54.3 245.29,54.29 245.68,54.29 246.08,54.28 246.47,54.28 246.86,54.28 247.26,54.27 247.65,54.27 248.04,54.27 248.44,54.28 248.83,54.28 249.22,54.29 249.62,54.29 250.01,54.3 250.4,54.3 250.79,54.3 251.19,54.3 251.58,54.3 251.97,54.3 252.37,54.29 252.76,54.29 253.15,54.28 253.55,54.27 253.94,54.27 254.33,54.26 254.73,54.25 255.12,54.24 255.51,54.22 255.91,54.21 256.3,54.19 256.69,54.16 257.09,54.13 257.48,54.11 257.87,54.08 258.27,54.05 258.66,54.03 259.05,54.01 259.44,53.99 259.84,53.98 260.23,53.97 260.62,53.97 261.02,53.97 261.41,53.97 261.8,53.97" stroke-dasharray="none" stroke="rgb(31,120,180)" stroke-width="0.75" opacity="1" stroke-opacity="1" fill="none"/>
          </g>
          <g id="Fig:densplot_01.xyplot.lines.group.8.panel.1.1.1">
            <polyline id="Fig:densplot_01.xyplot.lines.group.8.panel.1.1.1.1" points="62.12,53.97 62.51,53.97 62.89,53.97 63.28,53.99 63.66,54.04 64.05,54.18 64.43,54.47 64.82,54.92 65.2,55.48 65.59,56.06 65.97,56.58 66.36,56.96 66.74,57.25 67.13,57.64 67.51,58.54 67.9,60.63 68.28,64.77 68.67,71.72 69.05,81.89 69.44,95.22 69.82,110.92 70.21,127.57 70.59,143.55 70.98,157.7 71.36,169.35 71.75,177.8 72.13,182.16 72.52,182.04 72.9,178.36 73.29,172.56 73.67,165.64 74.06,158.12 74.44,150.36 74.83,142.7 75.21,135.37 75.6,128.5 75.98,122.14 76.37,116.46 76.75,111.52 77.14,107.2 77.52,103.39 77.91,99.99 78.29,96.89 78.68,93.98 79.06,91.17 79.45,88.5 79.83,86.14 80.22,84.14 80.6,82.36 80.99,80.68 81.37,79.1 81.76,77.7 82.14,76.48 82.53,75.33 82.91,74.17 83.3,73.02 83.68,71.99 84.07,71.1 84.45,70.37 84.84,69.77 85.22,69.11 85.61,68.33 85.99,67.58 86.38,67 86.76,66.5 87.15,65.96 87.53,65.41 87.92,64.95 88.3,64.56 88.69,64.19 89.07,63.81 89.46,63.37 89.84,62.97 90.23,62.69 90.61,62.52 91,62.38 91.38,62.19 91.77,61.94 92.15,61.67 92.54,61.43 92.92,61.22 93.31,61.01 93.69,60.78 94.08,60.5 94.46,60.16 94.85,59.79 95.23,59.48 95.62,59.26 96,59.13 96.39,59.02 96.77,58.88 97.16,58.73 97.54,58.59 97.92,58.43 98.31,58.26 98.69,58.15 99.08,58.05 99.46,57.91 99.85,57.77 100.23,57.67 100.62,57.62 101,57.58 101.39,57.55 101.77,57.52 102.16,57.47 102.54,57.37 102.93,57.26 103.31,57.16 103.7,57.12 104.08,57.07 104.47,56.96 104.85,56.82 105.24,56.7 105.62,56.63 106.01,56.62 106.39,56.6 106.78,56.57 107.16,56.51 107.55,56.42 107.93,56.34 108.32,56.3 108.7,56.27 109.09,56.19 109.47,56.1 109.86,56.03 110.24,55.99 110.63,55.97 111.01,55.95 111.4,55.9 111.78,55.81 112.17,55.72 112.55,55.67 112.94,55.7 113.32,55.78 113.71,55.84 114.09,55.84 114.48,55.79 114.86,55.69 115.25,55.61 115.63,55.57 116.02,55.55 116.4,55.52 116.79,55.47 117.17,55.42 117.56,55.38 117.94,55.36 118.33,55.35 118.71,55.36 119.1,55.37 119.48,55.33 119.87,55.27 120.25,55.23 120.64,55.22 121.02,55.2 121.41,55.16 121.79,55.11 122.18,55.07 122.56,55.03 122.95,55.02 123.33,55.03 123.72,55.05 124.1,55.06 124.49,55.08 124.87,55.09 125.26,55.09 125.64,55.04 126.03,54.98 126.41,54.93 126.8,54.91 127.18,54.91 127.57,54.92 127.95,54.93 128.34,54.93 128.72,54.91 129.11,54.89 129.49,54.86 129.88,54.84 130.26,54.83 130.65,54.82 131.03,54.8 131.42,54.78 131.8,54.78 132.19,54.79 132.57,54.78 132.96,54.75 133.34,54.74 133.73,54.75 134.11,54.77 134.5,54.77 134.88,54.75 135.27,54.72 135.65,54.7 136.04,54.7 136.42,54.69 136.81,54.66 137.19,54.63 137.58,54.61 137.96,54.62 138.35,54.62 138.73,54.59 139.12,54.58 139.5,54.6 139.89,54.62 140.27,54.62 140.66,54.58 141.04,54.53 141.43,54.49 141.81,54.49 142.19,54.52 142.58,54.53 142.96,54.53 143.35,54.5 143.73,54.48 144.12,54.48 144.5,54.5 144.89,54.51 145.27,54.49 145.66,54.48 146.04,54.49 146.43,54.49 146.81,54.49 147.2,54.47 147.58,54.45 147.97,54.43 148.35,54.4 148.74,54.38 149.12,54.38 149.51,54.39 149.89,54.39 150.28,54.39 150.66,54.39 151.05,54.39 151.43,54.37 151.82,54.36 152.2,54.37 152.59,54.37 152.97,54.37 153.36,54.36 153.74,54.34 154.13,54.34 154.51,54.35 154.9,54.36 155.28,54.35 155.67,54.32 156.05,54.29 156.44,54.28 156.82,54.29 157.21,54.33 157.59,54.36 157.98,54.37 158.36,54.35 158.75,54.32 159.13,54.31 159.52,54.32 159.9,54.34 160.29,54.36 160.67,54.35 161.06,54.33 161.44,54.3 161.83,54.28 162.21,54.3 162.6,54.34 162.98,54.38 163.37,54.39 163.75,54.38 164.14,54.36 164.52,54.32 164.91,54.28 165.29,54.26 165.68,54.26 166.06,54.28 166.45,54.3 166.83,54.3 167.22,54.28 167.6,54.25 167.99,54.24 168.37,54.26 168.76,54.28 169.14,54.29 169.53,54.3 169.91,54.32 170.3,54.35 170.68,54.36 171.07,54.34 171.45,54.3 171.84,54.26 172.22,54.24 172.61,54.25 172.99,54.26 173.38,54.27 173.76,54.28 174.15,54.3 174.53,54.29 174.92,54.26 175.3,54.23 175.69,54.22 176.07,54.21 176.46,54.22 176.84,54.22 177.23,54.23 177.61,54.24 178,54.27 178.38,54.31 178.77,54.33 179.15,54.33 179.54,54.3 179.92,54.26 180.31,54.23 180.69,54.21 181.08,54.19 181.46,54.19 181.85,54.2 182.23,54.22 182.62,54.24 183,54.24 183.39,54.22 183.77,54.17 184.16,54.15 184.54,54.16 184.93,54.19 185.31,54.21 185.69,54.22 186.08,54.21 186.46,54.2 186.85,54.2 187.23,54.2 187.62,54.19 188,54.17 188.39,54.17 188.77,54.19 189.16,54.21 189.54,54.21 189.93,54.18 190.31,54.15 190.7,54.15 191.08,54.16 191.47,54.18 191.85,54.19 192.24,54.19 192.62,54.18 193.01,54.17 193.39,54.16 193.78,54.16 194.16,54.15 194.55,54.14 194.93,54.15 195.32,54.16 195.7,54.17 196.09,54.18 196.47,54.19 196.86,54.21 197.24,54.21 197.63,54.22 198.01,54.22 198.4,54.21 198.78,54.21 199.17,54.19 199.55,54.19 199.94,54.2 200.32,54.21 200.71,54.22 201.09,54.21 201.48,54.2 201.86,54.19 202.25,54.17 202.63,54.16 203.02,54.16 203.4,54.17 203.79,54.16 204.17,54.13 204.56,54.11 204.94,54.1 205.33,54.11 205.71,54.12 206.1,54.14 206.48,54.16 206.87,54.16 207.25,54.13 207.64,54.1 208.02,54.09 208.41,54.09 208.79,54.09 209.18,54.09 209.56,54.11 209.95,54.12 210.33,54.13 210.72,54.14 211.1,54.14 211.49,54.13 211.87,54.12 212.26,54.12 212.64,54.12 213.03,54.12 213.41,54.12 213.8,54.11 214.18,54.11 214.57,54.11 214.95,54.11 215.34,54.1 215.72,54.09 216.11,54.09 216.49,54.12 216.88,54.14 217.26,54.14 217.65,54.13 218.03,54.11 218.42,54.09 218.8,54.08 219.19,54.09 219.57,54.1 219.96,54.1 220.34,54.1 220.73,54.11 221.11,54.11 221.5,54.1 221.88,54.11 222.27,54.12 222.65,54.13 223.04,54.12 223.42,54.11 223.81,54.1 224.19,54.09 224.58,54.08 224.96,54.08 225.35,54.09 225.73,54.1 226.12,54.11 226.5,54.1 226.89,54.09 227.27,54.08 227.66,54.08 228.04,54.09 228.43,54.1 228.81,54.11 229.19,54.11 229.58,54.12 229.96,54.12 230.35,54.12 230.73,54.1 231.12,54.08 231.5,54.06 231.89,54.06 232.27,54.07 232.66,54.09 233.04,54.08 233.43,54.08 233.81,54.08 234.2,54.09 234.58,54.09 234.97,54.09 235.35,54.1 235.74,54.1 236.12,54.1 236.51,54.09 236.89,54.1 237.28,54.12 237.66,54.13 238.05,54.11 238.43,54.09 238.82,54.08 239.2,54.09 239.59,54.09 239.97,54.08 240.36,54.07 240.74,54.07 241.13,54.08 241.51,54.09 241.9,54.09 242.28,54.08 242.67,54.06 243.05,54.06 243.44,54.08 243.82,54.1 244.21,54.09 244.59,54.08 244.98,54.06 245.36,54.07 245.75,54.08 246.13,54.09 246.52,54.09 246.9,54.08 247.29,54.07 247.67,54.06 248.06,54.06 248.44,54.05 248.83,54.06 249.21,54.07 249.6,54.07 249.98,54.06 250.37,54.06 250.75,54.07 251.14,54.07 251.52,54.06 251.91,54.06 252.29,54.05 252.68,54.05 253.06,54.06 253.45,54.06 253.83,54.06 254.22,54.05 254.6,54.05 254.99,54.06 255.37,54.06 255.76,54.07 256.14,54.07 256.53,54.06 256.91,54.04 257.3,54.01 257.68,53.99 258.07,53.97 258.45,53.97 258.84,53.97" stroke-dasharray="none" stroke="rgb(31,120,180)" stroke-width="0.75" opacity="1" stroke-opacity="1" fill="none"/>
          </g>
          <g id="Fig:densplot_01.xyplot.lines.group.9.panel.1.1.1">
            <polyline id="Fig:densplot_01.xyplot.lines.group.9.panel.1.1.1.1" points="60.18,53.97 60.57,53.97 60.96,53.98 61.35,54 61.74,54.08 62.12,54.27 62.51,54.65 62.9,55.27 63.29,56.06 63.68,56.81 64.07,57.33 64.46,57.51 64.85,57.43 65.24,57.47 65.63,58.27 66.02,60.58 66.41,65.17 66.8,72.64 67.19,83.23 67.58,96.6 67.97,111.82 68.36,127.53 68.74,142.32 69.13,154.83 69.52,163.96 69.91,169.23 70.3,170.93 70.69,169.81 71.08,166.38 71.47,161.01 71.86,154.32 72.25,147.27 72.64,140.53 73.03,134.21 73.42,128.22 73.81,122.6 74.2,117.41 74.59,112.61 74.98,108.12 75.37,104.03 75.75,100.52 76.14,97.56 76.53,94.84 76.92,92.14 77.31,89.51 77.7,87.15 78.09,85.14 78.48,83.45 78.87,81.99 79.26,80.65 79.65,79.37 80.04,78.17 80.43,77.1 80.82,76.17 81.21,75.28 81.6,74.34 81.99,73.38 82.37,72.48 82.76,71.69 83.15,70.92 83.54,70.13 83.93,69.37 84.32,68.69 84.71,68.05 85.1,67.4 85.49,66.77 85.88,66.25 86.27,65.84 86.66,65.51 87.05,65.19 87.44,64.88 87.83,64.55 88.22,64.18 88.61,63.78 89,63.4 89.38,63.1 89.77,62.88 90.16,62.7 90.55,62.48 90.94,62.21 91.33,61.91 91.72,61.59 92.11,61.27 92.5,60.98 92.89,60.72 93.28,60.49 93.67,60.29 94.06,60.14 94.45,60.05 94.84,59.96 95.23,59.84 95.62,59.69 96,59.51 96.39,59.3 96.78,59.05 97.17,58.84 97.56,58.7 97.95,58.64 98.34,58.58 98.73,58.5 99.12,58.41 99.51,58.31 99.9,58.19 100.29,58.1 100.68,58.08 101.07,58.08 101.46,58.03 101.85,57.92 102.24,57.8 102.63,57.71 103.01,57.66 103.4,57.62 103.79,57.55 104.18,57.43 104.57,57.28 104.96,57.16 105.35,57.09 105.74,57.07 106.13,57.06 106.52,57 106.91,56.9 107.3,56.81 107.69,56.77 108.08,56.76 108.47,56.75 108.86,56.71 109.25,56.62 109.63,56.51 110.02,56.41 110.41,56.34 110.8,56.28 111.19,56.22 111.58,56.17 111.97,56.15 112.36,56.18 112.75,56.2 113.14,56.19 113.53,56.13 113.92,56.04 114.31,55.95 114.7,55.88 115.09,55.84 115.48,55.84 115.87,55.85 116.26,55.83 116.64,55.75 117.03,55.65 117.42,55.57 117.81,55.54 118.2,55.57 118.59,55.62 118.98,55.66 119.37,55.67 119.76,55.64 120.15,55.6 120.54,55.56 120.93,55.52 121.32,55.49 121.71,55.47 122.1,55.46 122.49,55.47 122.88,55.49 123.26,55.52 123.65,55.52 124.04,55.48 124.43,55.42 124.82,55.36 125.21,55.32 125.6,55.31 125.99,55.31 126.38,55.3 126.77,55.27 127.16,55.24 127.55,55.22 127.94,55.22 128.33,55.22 128.72,55.2 129.11,55.17 129.5,55.14 129.89,55.11 130.27,55.1 130.66,55.09 131.05,55.07 131.44,55.05 131.83,55.02 132.22,54.98 132.61,54.95 133,54.91 133.39,54.89 133.78,54.89 134.17,54.9 134.56,54.91 134.95,54.9 135.34,54.89 135.73,54.88 136.12,54.88 136.51,54.87 136.89,54.85 137.28,54.81 137.67,54.77 138.06,54.74 138.45,54.75 138.84,54.78 139.23,54.8 139.62,54.81 140.01,54.8 140.4,54.78 140.79,54.77 141.18,54.77 141.57,54.77 141.96,54.77 142.35,54.76 142.74,54.76 143.13,54.76 143.52,54.76 143.9,54.75 144.29,54.74 144.68,54.73 145.07,54.71 145.46,54.7 145.85,54.7 146.24,54.7 146.63,54.69 147.02,54.67 147.41,54.66 147.8,54.65 148.19,54.64 148.58,54.62 148.97,54.6 149.36,54.57 149.75,54.54 150.14,54.52 150.52,54.52 150.91,54.53 151.3,54.54 151.69,54.54 152.08,54.53 152.47,54.52 152.86,54.51 153.25,54.5 153.64,54.51 154.03,54.51 154.42,54.51 154.81,54.51 155.2,54.51 155.59,54.51 155.98,54.52 156.37,54.53 156.76,54.52 157.15,54.51 157.53,54.5 157.92,54.49 158.31,54.49 158.7,54.5 159.09,54.5 159.48,54.49 159.87,54.46 160.26,54.42 160.65,54.4 161.04,54.39 161.43,54.39 161.82,54.41 162.21,54.43 162.6,54.45 162.99,54.46 163.38,54.46 163.77,54.45 164.15,54.44 164.54,54.43 164.93,54.42 165.32,54.41 165.71,54.38 166.1,54.35 166.49,54.32 166.88,54.31 167.27,54.32 167.66,54.33 168.05,54.35 168.44,54.36 168.83,54.36 169.22,54.35 169.61,54.34 170,54.33 170.39,54.33 170.78,54.32 171.16,54.31 171.55,54.29 171.94,54.29 172.33,54.29 172.72,54.29 173.11,54.29 173.5,54.29 173.89,54.29 174.28,54.3 174.67,54.3 175.06,54.3 175.45,54.3 175.84,54.31 176.23,54.32 176.62,54.31 177.01,54.3 177.4,54.28 177.78,54.27 178.17,54.27 178.56,54.26 178.95,54.25 179.34,54.25 179.73,54.24 180.12,54.23 180.51,54.22 180.9,54.22 181.29,54.23 181.68,54.24 182.07,54.25 182.46,54.25 182.85,54.25 183.24,54.24 183.63,54.24 184.02,54.24 184.41,54.24 184.79,54.24 185.18,54.24 185.57,54.24 185.96,54.23 186.35,54.21 186.74,54.2 187.13,54.19 187.52,54.19 187.91,54.2 188.3,54.21 188.69,54.2 189.08,54.19 189.47,54.18 189.86,54.18 190.25,54.19 190.64,54.21 191.03,54.23 191.41,54.24 191.8,54.24 192.19,54.23 192.58,54.21 192.97,54.2 193.36,54.2 193.75,54.19 194.14,54.18 194.53,54.17 194.92,54.17 195.31,54.18 195.7,54.2 196.09,54.21 196.48,54.21 196.87,54.21 197.26,54.22 197.65,54.23 198.04,54.24 198.42,54.23 198.81,54.21 199.2,54.19 199.59,54.18 199.98,54.19 200.37,54.21 200.76,54.23 201.15,54.24 201.54,54.23 201.93,54.23 202.32,54.22 202.71,54.21 203.1,54.19 203.49,54.18 203.88,54.17 204.27,54.17 204.66,54.17 205.04,54.16 205.43,54.15 205.82,54.15 206.21,54.15 206.6,54.15 206.99,54.15 207.38,54.14 207.77,54.12 208.16,54.11 208.55,54.11 208.94,54.11 209.33,54.12 209.72,54.13 210.11,54.14 210.5,54.14 210.89,54.14 211.28,54.13 211.67,54.12 212.05,54.12 212.44,54.13 212.83,54.15 213.22,54.16 213.61,54.16 214,54.17 214.39,54.16 214.78,54.16 215.17,54.15 215.56,54.14 215.95,54.13 216.34,54.12 216.73,54.1 217.12,54.1 217.51,54.1 217.9,54.12 218.29,54.15 218.67,54.16 219.06,54.17 219.45,54.16 219.84,54.14 220.23,54.12 220.62,54.11 221.01,54.11 221.4,54.12 221.79,54.12 222.18,54.13 222.57,54.12 222.96,54.12 223.35,54.11 223.74,54.11 224.13,54.11 224.52,54.11 224.91,54.11 225.3,54.12 225.68,54.13 226.07,54.14 226.46,54.14 226.85,54.14 227.24,54.13 227.63,54.12 228.02,54.11 228.41,54.1 228.8,54.1 229.19,54.09 229.58,54.08 229.97,54.07 230.36,54.07 230.75,54.08 231.14,54.08 231.53,54.09 231.92,54.08 232.3,54.08 232.69,54.08 233.08,54.09 233.47,54.09 233.86,54.09 234.25,54.09 234.64,54.08 235.03,54.08 235.42,54.08 235.81,54.09 236.2,54.11 236.59,54.12 236.98,54.13 237.37,54.12 237.76,54.1 238.15,54.09 238.54,54.08 238.93,54.09 239.31,54.1 239.7,54.1 240.09,54.09 240.48,54.08 240.87,54.07 241.26,54.07 241.65,54.08 242.04,54.09 242.43,54.09 242.82,54.09 243.21,54.08 243.6,54.07 243.99,54.07 244.38,54.06 244.77,54.05 245.16,54.05 245.55,54.06 245.93,54.07 246.32,54.08 246.71,54.09 247.1,54.1 247.49,54.1 247.88,54.09 248.27,54.09 248.66,54.08 249.05,54.07 249.44,54.07 249.83,54.06 250.22,54.06 250.61,54.06 251,54.07 251.39,54.07 251.78,54.06 252.17,54.06 252.56,54.06 252.94,54.06 253.33,54.06 253.72,54.07 254.11,54.07 254.5,54.08 254.89,54.07 255.28,54.06 255.67,54.04 256.06,54.03 256.45,54.03 256.84,54.03 257.23,54.02 257.62,54 258.01,53.98 258.4,53.97 258.79,53.97 259.18,53.97" stroke-dasharray="none" stroke="rgb(31,120,180)" stroke-width="0.75" opacity="1" stroke-opacity="1" fill="none"/>
          </g>
          <g id="Fig:densplot_01.xyplot.lines.group.10.panel.1.1.1">
            <polyline id="Fig:densplot_01.xyplot.lines.group.10.panel.1.1.1.1" points="60.25,53.97 60.64,53.97 61.03,53.97 61.42,53.98 61.81,54 62.2,54.06 62.59,54.17 62.99,54.38 63.38,54.71 63.77,55.15 64.16,55.66 64.55,56.16 64.94,56.56 65.33,56.82 65.72,57 66.11,57.31 66.5,58.08 66.89,59.77 67.28,62.8 67.67,67.53 68.06,74.18 68.45,82.71 68.84,92.85 69.23,104.03 69.62,115.43 70.01,126.07 70.41,135.06 70.8,141.8 71.19,146.08 71.58,148.04 71.97,148.01 72.36,146.45 72.75,143.8 73.14,140.45 73.53,136.57 73.92,132.3 74.31,127.8 74.7,123.29 75.09,118.99 75.48,115.06 75.87,111.5 76.26,108.2 76.65,105.06 77.04,102.02 77.43,99.13 77.82,96.45 78.22,93.99 78.61,91.73 79,89.67 79.39,87.85 79.78,86.24 80.17,84.8 80.56,83.45 80.95,82.16 81.34,80.92 81.73,79.76 82.12,78.65 82.51,77.59 82.9,76.52 83.29,75.46 83.68,74.45 84.07,73.54 84.46,72.77 84.85,72.12 85.24,71.55 85.64,71.02 86.03,70.52 86.42,70.01 86.81,69.47 87.2,68.9 87.59,68.32 87.98,67.76 88.37,67.23 88.76,66.73 89.15,66.27 89.54,65.84 89.93,65.46 90.32,65.12 90.71,64.79 91.1,64.49 91.49,64.2 91.88,63.93 92.27,63.67 92.66,63.42 93.06,63.17 93.45,62.89 93.84,62.62 94.23,62.35 94.62,62.12 95.01,61.91 95.4,61.72 95.79,61.54 96.18,61.37 96.57,61.19 96.96,61.01 97.35,60.82 97.74,60.61 98.13,60.4 98.52,60.19 98.91,60.03 99.3,59.9 99.69,59.81 100.08,59.72 100.48,59.63 100.87,59.52 101.26,59.39 101.65,59.26 102.04,59.15 102.43,59.07 102.82,58.99 103.21,58.91 103.6,58.82 103.99,58.72 104.38,58.63 104.77,58.52 105.16,58.4 105.55,58.26 105.94,58.12 106.33,57.99 106.72,57.9 107.11,57.85 107.5,57.83 107.9,57.82 108.29,57.8 108.68,57.77 109.07,57.73 109.46,57.67 109.85,57.58 110.24,57.48 110.63,57.38 111.02,57.3 111.41,57.24 111.8,57.19 112.19,57.15 112.58,57.11 112.97,57.07 113.36,57.05 113.75,57.04 114.14,57.02 114.53,56.97 114.92,56.91 115.32,56.84 115.71,56.78 116.1,56.73 116.49,56.7 116.88,56.66 117.27,56.62 117.66,56.58 118.05,56.55 118.44,56.5 118.83,56.44 119.22,56.36 119.61,56.28 120,56.21 120.39,56.15 120.78,56.11 121.17,56.08 121.56,56.07 121.95,56.08 122.34,56.1 122.74,56.12 123.13,56.11 123.52,56.09 123.91,56.04 124.3,55.98 124.69,55.92 125.08,55.87 125.47,55.85 125.86,55.84 126.25,55.84 126.64,55.83 127.03,55.81 127.42,55.78 127.81,55.75 128.2,55.72 128.59,55.69 128.98,55.67 129.37,55.66 129.76,55.65 130.16,55.64 130.55,55.61 130.94,55.58 131.33,55.54 131.72,55.52 132.11,55.5 132.5,55.49 132.89,55.47 133.28,55.43 133.67,55.39 134.06,55.34 134.45,55.3 134.84,55.29 135.23,55.29 135.62,55.29 136.01,55.29 136.4,55.29 136.79,55.28 137.18,55.28 137.58,55.29 137.97,55.29 138.36,55.28 138.75,55.26 139.14,55.23 139.53,55.19 139.92,55.14 140.31,55.11 140.7,55.09 141.09,55.08 141.48,55.1 141.87,55.12 142.26,55.14 142.65,55.16 143.04,55.15 143.43,55.13 143.82,55.09 144.21,55.05 144.6,55.02 145,54.99 145.39,54.98 145.78,54.96 146.17,54.95 146.56,54.95 146.95,54.96 147.34,54.97 147.73,54.98 148.12,54.97 148.51,54.94 148.9,54.93 149.29,54.92 149.68,54.93 150.07,54.94 150.46,54.94 150.85,54.93 151.24,54.91 151.63,54.89 152.02,54.85 152.41,54.8 152.81,54.76 153.2,54.74 153.59,54.73 153.98,54.74 154.37,54.75 154.76,54.77 155.15,54.78 155.54,54.78 155.93,54.79 156.32,54.79 156.71,54.77 157.1,54.75 157.49,54.71 157.88,54.68 158.27,54.66 158.66,54.65 159.05,54.64 159.44,54.64 159.83,54.65 160.23,54.65 160.62,54.65 161.01,54.66 161.4,54.67 161.79,54.67 162.18,54.67 162.57,54.66 162.96,54.66 163.35,54.65 163.74,54.65 164.13,54.64 164.52,54.64 164.91,54.63 165.3,54.62 165.69,54.6 166.08,54.58 166.47,54.56 166.86,54.54 167.25,54.52 167.65,54.51 168.04,54.49 168.43,54.48 168.82,54.48 169.21,54.48 169.6,54.49 169.99,54.5 170.38,54.52 170.77,54.53 171.16,54.53 171.55,54.53 171.94,54.53 172.33,54.53 172.72,54.52 173.11,54.52 173.5,54.51 173.89,54.49 174.28,54.48 174.67,54.47 175.07,54.47 175.46,54.47 175.85,54.47 176.24,54.47 176.63,54.46 177.02,54.46 177.41,54.45 177.8,54.44 178.19,54.43 178.58,54.42 178.97,54.41 179.36,54.42 179.75,54.42 180.14,54.43 180.53,54.44 180.92,54.44 181.31,54.44 181.7,54.45 182.09,54.46 182.49,54.47 182.88,54.47 183.27,54.46 183.66,54.44 184.05,54.42 184.44,54.4 184.83,54.39 185.22,54.38 185.61,54.37 186,54.37 186.39,54.36 186.78,54.36 187.17,54.37 187.56,54.38 187.95,54.38 188.34,54.39 188.73,54.38 189.12,54.37 189.51,54.35 189.91,54.34 190.3,54.34 190.69,54.34 191.08,54.36 191.47,54.38 191.86,54.39 192.25,54.39 192.64,54.38 193.03,54.36 193.42,54.34 193.81,54.32 194.2,54.3 194.59,54.29 194.98,54.29 195.37,54.28 195.76,54.28 196.15,54.28 196.54,54.28 196.93,54.28 197.33,54.28 197.72,54.28 198.11,54.28 198.5,54.29 198.89,54.29 199.28,54.3 199.67,54.3 200.06,54.29 200.45,54.29 200.84,54.27 201.23,54.26 201.62,54.25 202.01,54.25 202.4,54.25 202.79,54.26 203.18,54.26 203.57,54.25 203.96,54.25 204.35,54.25 204.75,54.25 205.14,54.26 205.53,54.26 205.92,54.25 206.31,54.24 206.7,54.22 207.09,54.21 207.48,54.2 207.87,54.2 208.26,54.21 208.65,54.22 209.04,54.23 209.43,54.24 209.82,54.24 210.21,54.22 210.6,54.21 210.99,54.2 211.38,54.2 211.77,54.21 212.17,54.22 212.56,54.23 212.95,54.23 213.34,54.23 213.73,54.22 214.12,54.21 214.51,54.21 214.9,54.2 215.29,54.2 215.68,54.2 216.07,54.2 216.46,54.19 216.85,54.19 217.24,54.18 217.63,54.19 218.02,54.19 218.41,54.2 218.8,54.21 219.19,54.22 219.59,54.22 219.98,54.23 220.37,54.23 220.76,54.24 221.15,54.24 221.54,54.23 221.93,54.22 222.32,54.2 222.71,54.19 223.1,54.18 223.49,54.19 223.88,54.2 224.27,54.21 224.66,54.23 225.05,54.24 225.44,54.24 225.83,54.24 226.22,54.23 226.61,54.22 227.01,54.21 227.4,54.19 227.79,54.18 228.18,54.18 228.57,54.19 228.96,54.19 229.35,54.2 229.74,54.2 230.13,54.2 230.52,54.19 230.91,54.19 231.3,54.18 231.69,54.18 232.08,54.17 232.47,54.16 232.86,54.15 233.25,54.14 233.64,54.14 234.03,54.15 234.42,54.16 234.82,54.18 235.21,54.19 235.6,54.19 235.99,54.18 236.38,54.16 236.77,54.15 237.16,54.15 237.55,54.15 237.94,54.15 238.33,54.16 238.72,54.16 239.11,54.17 239.5,54.17 239.89,54.18 240.28,54.18 240.67,54.18 241.06,54.17 241.45,54.17 241.84,54.16 242.24,54.16 242.63,54.15 243.02,54.15 243.41,54.15 243.8,54.14 244.19,54.14 244.58,54.13 244.97,54.12 245.36,54.12 245.75,54.11 246.14,54.11 246.53,54.12 246.92,54.11 247.31,54.11 247.7,54.1 248.09,54.09 248.48,54.09 248.87,54.1 249.26,54.11 249.66,54.13 250.05,54.15 250.44,54.16 250.83,54.16 251.22,54.16 251.61,54.15 252,54.15 252.39,54.14 252.78,54.14 253.17,54.13 253.56,54.13 253.95,54.12 254.34,54.12 254.73,54.12 255.12,54.12 255.51,54.12 255.9,54.12 256.29,54.11 256.68,54.1 257.08,54.08 257.47,54.05 257.86,54.02 258.25,54 258.64,53.98 259.03,53.97 259.42,53.97 259.81,53.97" stroke-dasharray="none" stroke="rgb(31,120,180)" stroke-width="0.75" opacity="1" stroke-opacity="1" fill="none"/>
          </g>
          <g id="Fig:densplot_01.xyplot.lines.group.11.panel.1.1.1">
            <polyline id="Fig:densplot_01.xyplot.lines.group.11.panel.1.1.1.1" points="59,53.97 59.39,53.97 59.79,53.97 60.18,53.98 60.58,54 60.97,54.06 61.36,54.17 61.76,54.37 62.15,54.67 62.55,55.09 62.94,55.59 63.33,56.12 63.73,56.62 64.12,57.07 64.52,57.57 64.91,58.35 65.3,59.77 65.7,62.22 66.09,66.08 66.49,71.59 66.88,78.75 67.27,87.29 67.67,96.7 68.06,106.31 68.46,115.41 68.85,123.35 69.24,129.67 69.64,134.12 70.03,136.68 70.43,137.5 70.82,136.85 71.21,135.03 71.61,132.36 72,129.15 72.4,125.65 72.79,122.06 73.18,118.53 73.58,115.15 73.97,111.93 74.37,108.86 74.76,105.93 75.15,103.13 75.55,100.47 75.94,97.98 76.33,95.66 76.73,93.5 77.12,91.52 77.52,89.7 77.91,88.05 78.3,86.57 78.7,85.21 79.09,83.96 79.49,82.77 79.88,81.64 80.27,80.57 80.67,79.56 81.06,78.64 81.46,77.79 81.85,76.98 82.24,76.19 82.64,75.39 83.03,74.59 83.43,73.81 83.82,73.07 84.21,72.39 84.61,71.79 85,71.24 85.4,70.75 85.79,70.28 86.18,69.82 86.58,69.35 86.97,68.87 87.37,68.38 87.76,67.9 88.15,67.44 88.55,66.99 88.94,66.58 89.34,66.2 89.73,65.87 90.12,65.56 90.52,65.26 90.91,64.95 91.31,64.63 91.7,64.3 92.09,63.97 92.49,63.68 92.88,63.43 93.28,63.22 93.67,63.04 94.06,62.86 94.46,62.66 94.85,62.43 95.25,62.19 95.64,61.96 96.03,61.73 96.43,61.53 96.82,61.36 97.22,61.21 97.61,61.08 98,60.98 98.4,60.87 98.79,60.75 99.19,60.62 99.58,60.46 99.97,60.3 100.37,60.16 100.76,60.05 101.16,59.95 101.55,59.87 101.94,59.8 102.34,59.72 102.73,59.64 103.13,59.54 103.52,59.43 103.91,59.3 104.31,59.15 104.7,58.99 105.1,58.84 105.49,58.71 105.88,58.59 106.28,58.51 106.67,58.44 107.06,58.39 107.46,58.34 107.85,58.28 108.25,58.23 108.64,58.17 109.03,58.11 109.43,58.04 109.82,57.98 110.22,57.91 110.61,57.84 111,57.77 111.4,57.69 111.79,57.61 112.19,57.53 112.58,57.46 112.97,57.39 113.37,57.34 113.76,57.29 114.16,57.26 114.55,57.23 114.94,57.21 115.34,57.18 115.73,57.14 116.13,57.09 116.52,57.01 116.91,56.93 117.31,56.85 117.7,56.78 118.1,56.73 118.49,56.7 118.88,56.67 119.28,56.65 119.67,56.62 120.07,56.6 120.46,56.58 120.85,56.56 121.25,56.53 121.64,56.51 122.04,56.49 122.43,56.48 122.82,56.47 123.22,56.45 123.61,56.42 124.01,56.38 124.4,56.32 124.79,56.27 125.19,56.21 125.58,56.16 125.98,56.12 126.37,56.09 126.76,56.05 127.16,56.02 127.55,55.99 127.95,55.98 128.34,55.98 128.73,55.99 129.13,56 129.52,56 129.92,55.97 130.31,55.92 130.7,55.87 131.1,55.82 131.49,55.78 131.89,55.76 132.28,55.74 132.67,55.73 133.07,55.72 133.46,55.71 133.86,55.7 134.25,55.69 134.64,55.67 135.04,55.66 135.43,55.63 135.83,55.6 136.22,55.57 136.61,55.53 137.01,55.5 137.4,55.48 137.79,55.45 138.19,55.43 138.58,55.4 138.98,55.38 139.37,55.36 139.76,55.34 140.16,55.32 140.55,55.3 140.95,55.28 141.34,55.25 141.73,55.22 142.13,55.21 142.52,55.21 142.92,55.21 143.31,55.23 143.7,55.24 144.1,55.24 144.49,55.24 144.89,55.23 145.28,55.22 145.67,55.21 146.07,55.21 146.46,55.2 146.86,55.2 147.25,55.19 147.64,55.18 148.04,55.16 148.43,55.14 148.83,55.13 149.22,55.11 149.61,55.1 150.01,55.1 150.4,55.1 150.8,55.1 151.19,55.1 151.58,55.09 151.98,55.08 152.37,55.06 152.77,55.03 153.16,55.01 153.55,54.98 153.95,54.95 154.34,54.93 154.74,54.92 155.13,54.91 155.52,54.91 155.92,54.9 156.31,54.89 156.71,54.88 157.1,54.87 157.49,54.86 157.89,54.85 158.28,54.83 158.68,54.82 159.07,54.81 159.46,54.81 159.86,54.81 160.25,54.81 160.65,54.8 161.04,54.8 161.43,54.78 161.83,54.76 162.22,54.74 162.62,54.72 163.01,54.71 163.4,54.7 163.8,54.69 164.19,54.7 164.59,54.7 164.98,54.7 165.37,54.7 165.77,54.69 166.16,54.67 166.55,54.65 166.95,54.63 167.34,54.62 167.74,54.61 168.13,54.62 168.52,54.63 168.92,54.64 169.31,54.64 169.71,54.64 170.1,54.64 170.49,54.64 170.89,54.64 171.28,54.65 171.68,54.65 172.07,54.66 172.46,54.66 172.86,54.65 173.25,54.63 173.65,54.62 174.04,54.6 174.43,54.59 174.83,54.59 175.22,54.59 175.62,54.59 176.01,54.6 176.4,54.59 176.8,54.58 177.19,54.57 177.59,54.55 177.98,54.55 178.37,54.54 178.77,54.54 179.16,54.54 179.56,54.53 179.95,54.52 180.34,54.51 180.74,54.5 181.13,54.49 181.53,54.47 181.92,54.46 182.31,54.45 182.71,54.45 183.1,54.45 183.5,54.46 183.89,54.46 184.28,54.46 184.68,54.45 185.07,54.44 185.47,54.43 185.86,54.42 186.25,54.41 186.65,54.4 187.04,54.39 187.44,54.39 187.83,54.39 188.22,54.4 188.62,54.42 189.01,54.43 189.41,54.44 189.8,54.43 190.19,54.42 190.59,54.41 190.98,54.4 191.38,54.4 191.77,54.4 192.16,54.4 192.56,54.41 192.95,54.41 193.35,54.4 193.74,54.4 194.13,54.4 194.53,54.4 194.92,54.4 195.32,54.41 195.71,54.41 196.1,54.41 196.5,54.4 196.89,54.4 197.28,54.39 197.68,54.38 198.07,54.37 198.47,54.36 198.86,54.36 199.25,54.35 199.65,54.35 200.04,54.36 200.44,54.36 200.83,54.36 201.22,54.36 201.62,54.36 202.01,54.36 202.41,54.35 202.8,54.35 203.19,54.34 203.59,54.34 203.98,54.33 204.38,54.33 204.77,54.34 205.16,54.35 205.56,54.36 205.95,54.36 206.35,54.37 206.74,54.36 207.13,54.35 207.53,54.35 207.92,54.34 208.32,54.33 208.71,54.33 209.1,54.33 209.5,54.32 209.89,54.32 210.29,54.31 210.68,54.3 211.07,54.29 211.47,54.28 211.86,54.28 212.26,54.28 212.65,54.27 213.04,54.26 213.44,54.25 213.83,54.24 214.23,54.24 214.62,54.25 215.01,54.25 215.41,54.25 215.8,54.25 216.2,54.24 216.59,54.24 216.98,54.25 217.38,54.26 217.77,54.27 218.17,54.28 218.56,54.29 218.95,54.29 219.35,54.28 219.74,54.28 220.14,54.28 220.53,54.28 220.92,54.27 221.32,54.27 221.71,54.26 222.11,54.25 222.5,54.24 222.89,54.23 223.29,54.23 223.68,54.24 224.08,54.24 224.47,54.25 224.86,54.25 225.26,54.25 225.65,54.26 226.05,54.26 226.44,54.26 226.83,54.26 227.23,54.25 227.62,54.24 228.01,54.23 228.41,54.23 228.8,54.22 229.2,54.22 229.59,54.22 229.98,54.23 230.38,54.23 230.77,54.23 231.17,54.23 231.56,54.22 231.95,54.22 232.35,54.21 232.74,54.2 233.14,54.19 233.53,54.19 233.92,54.2 234.32,54.2 234.71,54.2 235.11,54.2 235.5,54.19 235.89,54.19 236.29,54.18 236.68,54.18 237.08,54.19 237.47,54.19 237.86,54.19 238.26,54.19 238.65,54.19 239.05,54.19 239.44,54.18 239.83,54.18 240.23,54.17 240.62,54.17 241.02,54.17 241.41,54.16 241.8,54.16 242.2,54.16 242.59,54.17 242.99,54.17 243.38,54.18 243.77,54.19 244.17,54.19 244.56,54.2 244.96,54.2 245.35,54.19 245.74,54.19 246.14,54.19 246.53,54.18 246.93,54.18 247.32,54.17 247.71,54.17 248.11,54.16 248.5,54.16 248.9,54.15 249.29,54.15 249.68,54.15 250.08,54.15 250.47,54.16 250.87,54.16 251.26,54.17 251.65,54.17 252.05,54.17 252.44,54.16 252.84,54.16 253.23,54.15 253.62,54.15 254.02,54.15 254.41,54.15 254.81,54.15 255.2,54.15 255.59,54.14 255.99,54.13 256.38,54.12 256.78,54.09 257.17,54.06 257.56,54.03 257.96,54.01 258.35,53.99 258.74,53.98 259.14,53.97 259.53,53.97 259.93,53.97 260.32,53.97" stroke-dasharray="none" stroke="rgb(31,120,180)" stroke-width="0.75" opacity="1" stroke-opacity="1" fill="none"/>
          </g>
          <g id="Fig:densplot_01.xyplot.lines.group.12.panel.1.1.1">
            <polyline id="Fig:densplot_01.xyplot.lines.group.12.panel.1.1.1.1" points="60.53,53.97 60.92,53.97 61.31,53.98 61.7,54.04 62.09,54.21 62.48,54.59 62.86,55.27 63.25,56.2 63.64,57.15 64.03,57.78 64.42,57.86 64.81,57.55 65.2,57.32 65.58,57.86 65.97,59.92 66.36,64.28 66.75,71.7 67.14,82.67 67.53,96.99 67.92,113.68 68.3,131.35 68.69,148.44 69.08,163.11 69.47,173.58 69.86,179.15 70.25,180.34 70.64,178.05 71.03,172.97 71.41,165.76 71.8,157.41 72.19,149.05 72.58,141.36 72.97,134.4 73.36,128.07 73.75,122.25 74.13,116.84 74.52,111.72 74.91,106.91 75.3,102.58 75.69,98.82 76.08,95.54 76.47,92.62 76.85,90.02 77.24,87.76 77.63,85.78 78.02,84.01 78.41,82.42 78.8,80.97 79.19,79.52 79.57,78 79.96,76.45 80.35,75.1 80.74,74.06 81.13,73.2 81.52,72.38 81.91,71.57 82.29,70.79 82.68,70.04 83.07,69.31 83.46,68.62 83.85,68 84.24,67.45 84.63,66.97 85.01,66.52 85.4,66.04 85.79,65.51 86.18,64.98 86.57,64.45 86.96,63.98 87.35,63.61 87.74,63.37 88.12,63.21 88.51,63.01 88.9,62.74 89.29,62.46 89.68,62.22 90.07,61.99 90.46,61.77 90.84,61.54 91.23,61.28 91.62,60.97 92.01,60.66 92.4,60.41 92.79,60.22 93.18,60.02 93.56,59.84 93.95,59.71 94.34,59.63 94.73,59.58 95.12,59.5 95.51,59.39 95.9,59.26 96.28,59.14 96.67,59.04 97.06,58.98 97.45,58.93 97.84,58.85 98.23,58.72 98.62,58.55 99,58.39 99.39,58.27 99.78,58.18 100.17,58.1 100.56,57.99 100.95,57.84 101.34,57.67 101.72,57.56 102.11,57.5 102.5,57.48 102.89,57.43 103.28,57.37 103.67,57.3 104.06,57.23 104.45,57.16 104.83,57.12 105.22,57.13 105.61,57.15 106,57.11 106.39,57.02 106.78,56.9 107.17,56.79 107.55,56.7 107.94,56.63 108.33,56.58 108.72,56.54 109.11,56.5 109.5,56.46 109.89,56.42 110.27,56.4 110.66,56.41 111.05,56.42 111.44,56.39 111.83,56.33 112.22,56.26 112.61,56.18 112.99,56.09 113.38,56.03 113.77,56.01 114.16,56.04 114.55,56.08 114.94,56.09 115.33,56.05 115.71,56 116.1,55.93 116.49,55.86 116.88,55.78 117.27,55.7 117.66,55.66 118.05,55.64 118.43,55.61 118.82,55.58 119.21,55.57 119.6,55.58 119.99,55.59 120.38,55.59 120.77,55.57 121.16,55.55 121.54,55.5 121.93,55.45 122.32,55.41 122.71,55.4 123.1,55.4 123.49,55.38 123.88,55.37 124.26,55.35 124.65,55.34 125.04,55.33 125.43,55.3 125.82,55.26 126.21,55.21 126.6,55.17 126.98,55.12 127.37,55.07 127.76,55.03 128.15,55.02 128.54,55.05 128.93,55.09 129.32,55.1 129.7,55.09 130.09,55.07 130.48,55.06 130.87,55.07 131.26,55.1 131.65,55.12 132.04,55.13 132.42,55.12 132.81,55.07 133.2,55.01 133.59,54.96 133.98,54.93 134.37,54.9 134.76,54.87 135.14,54.86 135.53,54.87 135.92,54.89 136.31,54.91 136.7,54.91 137.09,54.89 137.48,54.87 137.87,54.85 138.25,54.82 138.64,54.8 139.03,54.8 139.42,54.79 139.81,54.79 140.2,54.79 140.59,54.81 140.97,54.81 141.36,54.79 141.75,54.76 142.14,54.71 142.53,54.69 142.92,54.68 143.31,54.69 143.69,54.68 144.08,54.65 144.47,54.63 144.86,54.62 145.25,54.63 145.64,54.65 146.03,54.67 146.41,54.68 146.8,54.67 147.19,54.64 147.58,54.61 147.97,54.59 148.36,54.59 148.75,54.59 149.13,54.59 149.52,54.6 149.91,54.61 150.3,54.62 150.69,54.62 151.08,54.62 151.47,54.6 151.85,54.58 152.24,54.56 152.63,54.56 153.02,54.57 153.41,54.59 153.8,54.6 154.19,54.58 154.58,54.55 154.96,54.52 155.35,54.5 155.74,54.48 156.13,54.46 156.52,54.44 156.91,54.44 157.3,54.44 157.68,54.45 158.07,54.45 158.46,54.43 158.85,54.41 159.24,54.39 159.63,54.38 160.02,54.36 160.4,54.35 160.79,54.37 161.18,54.41 161.57,54.42 161.96,54.42 162.35,54.41 162.74,54.4 163.12,54.4 163.51,54.4 163.9,54.41 164.29,54.43 164.68,54.45 165.07,54.48 165.46,54.48 165.84,54.45 166.23,54.42 166.62,54.39 167.01,54.35 167.4,54.32 167.79,54.3 168.18,54.32 168.56,54.34 168.95,54.36 169.34,54.34 169.73,54.32 170.12,54.31 170.51,54.31 170.9,54.32 171.29,54.33 171.67,54.34 172.06,54.33 172.45,54.32 172.84,54.32 173.23,54.33 173.62,54.34 174.01,54.33 174.39,54.31 174.78,54.3 175.17,54.29 175.56,54.29 175.95,54.3 176.34,54.31 176.73,54.31 177.11,54.31 177.5,54.31 177.89,54.3 178.28,54.3 178.67,54.29 179.06,54.29 179.45,54.28 179.83,54.26 180.22,54.25 180.61,54.25 181,54.27 181.39,54.29 181.78,54.3 182.17,54.3 182.55,54.28 182.94,54.26 183.33,54.25 183.72,54.25 184.11,54.25 184.5,54.24 184.89,54.22 185.27,54.21 185.66,54.2 186.05,54.2 186.44,54.21 186.83,54.22 187.22,54.22 187.61,54.2 188,54.18 188.38,54.17 188.77,54.18 189.16,54.18 189.55,54.18 189.94,54.19 190.33,54.2 190.72,54.22 191.1,54.24 191.49,54.23 191.88,54.22 192.27,54.2 192.66,54.2 193.05,54.2 193.44,54.19 193.82,54.18 194.21,54.16 194.6,54.15 194.99,54.14 195.38,54.16 195.77,54.19 196.16,54.21 196.54,54.21 196.93,54.2 197.32,54.2 197.71,54.21 198.1,54.21 198.49,54.21 198.88,54.2 199.26,54.19 199.65,54.18 200.04,54.17 200.43,54.18 200.82,54.19 201.21,54.19 201.6,54.19 201.98,54.19 202.37,54.19 202.76,54.19 203.15,54.17 203.54,54.15 203.93,54.16 204.32,54.17 204.7,54.18 205.09,54.18 205.48,54.17 205.87,54.16 206.26,54.15 206.65,54.16 207.04,54.18 207.43,54.19 207.81,54.2 208.2,54.19 208.59,54.17 208.98,54.16 209.37,54.15 209.76,54.15 210.15,54.16 210.53,54.16 210.92,54.16 211.31,54.16 211.7,54.16 212.09,54.16 212.48,54.16 212.87,54.16 213.25,54.14 213.64,54.13 214.03,54.11 214.42,54.1 214.81,54.11 215.2,54.12 215.59,54.13 215.97,54.14 216.36,54.14 216.75,54.14 217.14,54.14 217.53,54.14 217.92,54.14 218.31,54.12 218.69,54.1 219.08,54.09 219.47,54.09 219.86,54.09 220.25,54.1 220.64,54.12 221.03,54.13 221.41,54.13 221.8,54.13 222.19,54.12 222.58,54.12 222.97,54.11 223.36,54.1 223.75,54.1 224.14,54.1 224.52,54.11 224.91,54.11 225.3,54.1 225.69,54.09 226.08,54.09 226.47,54.09 226.86,54.1 227.24,54.1 227.63,54.11 228.02,54.11 228.41,54.11 228.8,54.1 229.19,54.1 229.58,54.1 229.96,54.09 230.35,54.1 230.74,54.1 231.13,54.1 231.52,54.1 231.91,54.09 232.3,54.08 232.68,54.08 233.07,54.07 233.46,54.07 233.85,54.07 234.24,54.06 234.63,54.06 235.02,54.05 235.4,54.05 235.79,54.05 236.18,54.06 236.57,54.07 236.96,54.07 237.35,54.08 237.74,54.1 238.12,54.12 238.51,54.13 238.9,54.13 239.29,54.11 239.68,54.09 240.07,54.08 240.46,54.09 240.85,54.09 241.23,54.09 241.62,54.08 242.01,54.07 242.4,54.05 242.79,54.04 243.18,54.04 243.57,54.05 243.95,54.05 244.34,54.05 244.73,54.05 245.12,54.06 245.51,54.06 245.9,54.07 246.29,54.09 246.67,54.1 247.06,54.11 247.45,54.1 247.84,54.08 248.23,54.07 248.62,54.06 249.01,54.06 249.39,54.07 249.78,54.08 250.17,54.08 250.56,54.08 250.95,54.08 251.34,54.06 251.73,54.05 252.11,54.04 252.5,54.04 252.89,54.05 253.28,54.05 253.67,54.05 254.06,54.05 254.45,54.05 254.83,54.05 255.22,54.05 255.61,54.06 256,54.06 256.39,54.06 256.78,54.05 257.17,54.04 257.56,54.02 257.94,53.99 258.33,53.98 258.72,53.97 259.11,53.97" stroke-dasharray="none" stroke="rgb(31,120,180)" stroke-width="0.75" opacity="1" stroke-opacity="1" fill="none"/>
          </g>
        </g>
        <g id="Fig:densplot_01.panel.1.1.off.vp.2">
          <g id="Fig:densplot_01.border.panel.1.1.1">
            <rect id="Fig:densplot_01.border.panel.1.1.1.1" x="44.8" y="42.19" width="231.2" height="191.81" transform="" stroke="rgb(0,0,0)" stroke-dasharray="none" stroke-width="0.75" opacity="1" fill="none" stroke-opacity="1" fill-opacity="0"/>
          </g>
        </g>
        <g id="Fig:densplot_01..1"/>
      </g>
    </g>
  </g>
</svg>